<svg xmlns="http://www.w3.org/2000/svg" xmlns:xlink="http://www.w3.org/1999/xlink" width="200" zoomAndPan="magnify" viewBox="0 0 150 187.499995" height="250" preserveAspectRatio="xMidYMid meet" version="1.0"><defs><filter x="0%" y="0%" width="100%" height="100%" id="dd18330d8f"><feColorMatrix values="0 0 0 0 1 0 0 0 0 1 0 0 0 0 1 0 0 0 1 0" color-interpolation-filters="sRGB"/></filter><g/><clipPath id="bb63b7338f"><path d="M 28 137 L 47 137 L 47 147.683594 L 28 147.683594 Z M 28 137 " clip-rule="nonzero"/></clipPath><clipPath id="5de4a931c4"><path d="M 0.199219 109 L 16 109 L 16 119 L 0.199219 119 Z M 0.199219 109 " clip-rule="nonzero"/></clipPath><clipPath id="a8b9dc72c6"><path d="M 60 30.246094 L 123 30.246094 L 123 93 L 60 93 Z M 60 30.246094 " clip-rule="nonzero"/></clipPath><clipPath id="03933932cf"><path d="M 60 30.246094 L 123 30.246094 L 123 93 L 60 93 Z M 60 30.246094 " clip-rule="nonzero"/></clipPath><mask id="d9f9c41cab"><g filter="url(#dd18330d8f)"><rect x="-15" width="180" fill="#000000" y="-18.749999" height="224.999994" fill-opacity="0.7"/></g></mask><clipPath id="3918167185"><path d="M 1 0.488281 L 10 0.488281 L 10 10.78125 L 1 10.78125 Z M 1 0.488281 " clip-rule="nonzero"/></clipPath><clipPath id="ae2438222a"><rect x="0" width="11" y="0" height="11"/></clipPath><mask id="7f0e240165"><g filter="url(#dd18330d8f)"><rect x="-15" width="180" fill="#000000" y="-18.749999" height="224.999994" fill-opacity="0.7"/></g></mask><clipPath id="1c16574b25"><path d="M 0.273438 0.21875 L 3.863281 0.21875 L 3.863281 4.289062 L 0.273438 4.289062 Z M 0.273438 0.21875 " clip-rule="nonzero"/></clipPath><clipPath id="56975e356c"><rect x="0" width="4" y="0" height="5"/></clipPath></defs><path fill="#ffffff" d="M 136.710938 65.65625 C 136.679688 65.761719 136.648438 65.863281 136.609375 65.960938 C 136.585938 66.042969 136.558594 66.117188 136.527344 66.195312 C 136.503906 66.261719 136.480469 66.324219 136.453125 66.386719 C 136.414062 66.488281 136.367188 66.589844 136.324219 66.691406 C 136.285156 66.769531 136.246094 66.851562 136.207031 66.929688 C 136.140625 67.074219 136.070312 67.207031 135.988281 67.339844 C 135.949219 67.410156 135.902344 67.484375 135.863281 67.558594 C 135.804688 67.65625 135.742188 67.75 135.679688 67.84375 C 135.621094 67.933594 135.558594 68.023438 135.488281 68.113281 C 135.425781 68.199219 135.359375 68.285156 135.292969 68.371094 C 135.132812 68.578125 134.960938 68.773438 134.78125 68.960938 C 134.730469 69.015625 134.679688 69.066406 134.625 69.121094 C 134.519531 69.230469 134.414062 69.332031 134.304688 69.429688 C 134.25 69.480469 134.199219 69.527344 134.140625 69.578125 C 134.039062 69.664062 133.941406 69.746094 133.84375 69.828125 C 133.8125 69.855469 133.777344 69.882812 133.746094 69.910156 C 133.542969 70.070312 133.332031 70.222656 133.125 70.363281 C 133.078125 70.398438 133.027344 70.4375 132.976562 70.46875 C 132.949219 70.484375 132.929688 70.503906 132.902344 70.515625 C 132.902344 70.515625 132.898438 70.515625 132.902344 70.519531 C 132.882812 70.53125 132.871094 70.539062 132.855469 70.546875 C 132.429688 70.824219 132.003906 71.0625 131.601562 71.261719 C 131.546875 71.292969 131.492188 71.316406 131.433594 71.34375 C 131.105469 71.5 130.796875 71.636719 130.507812 71.75 C 130.410156 71.785156 130.316406 71.824219 130.222656 71.855469 C 130.125 71.894531 130.03125 71.929688 129.945312 71.960938 C 129.871094 71.988281 129.796875 72.011719 129.726562 72.035156 C 129.347656 72.160156 129.054688 72.242188 128.875 72.285156 C 128.847656 72.289062 128.828125 72.296875 128.804688 72.300781 C 128.730469 72.316406 128.683594 72.328125 128.683594 72.328125 L 115.667969 83.085938 L 99.683594 96.292969 L 95.15625 80.011719 C 95.15625 80.011719 100.632812 76.089844 106.957031 71.59375 C 109.449219 69.820312 112.074219 67.953125 114.546875 66.207031 C 115.753906 65.347656 116.921875 64.523438 118.027344 63.746094 C 118.148438 63.660156 118.269531 63.574219 118.390625 63.484375 C 119.78125 62.507812 121.046875 61.617188 122.128906 60.867188 C 122.257812 60.777344 122.382812 60.6875 122.503906 60.601562 C 123.230469 60.097656 123.863281 59.660156 124.371094 59.316406 C 124.433594 59.273438 124.492188 59.230469 124.554688 59.191406 C 124.558594 59.183594 124.558594 59.183594 124.558594 59.183594 C 124.65625 59.121094 124.746094 59.058594 124.835938 58.996094 C 124.988281 58.894531 125.125 58.808594 125.238281 58.730469 C 125.285156 58.699219 125.328125 58.667969 125.371094 58.644531 C 125.492188 58.5625 125.589844 58.503906 125.65625 58.460938 C 127.816406 57.183594 138.292969 60.3125 136.710938 65.65625 Z M 136.710938 65.65625 " fill-opacity="1" fill-rule="nonzero"/><path fill="#f92323" d="M 136.710938 65.65625 C 136.679688 65.761719 136.648438 65.863281 136.609375 65.960938 C 136.585938 66.042969 136.558594 66.117188 136.527344 66.195312 C 136.503906 66.261719 136.480469 66.324219 136.453125 66.386719 C 136.414062 66.488281 136.367188 66.589844 136.324219 66.691406 C 136.285156 66.769531 136.246094 66.851562 136.207031 66.929688 C 136.140625 67.074219 136.070312 67.207031 135.988281 67.339844 C 135.949219 67.410156 135.902344 67.484375 135.863281 67.558594 C 135.804688 67.65625 135.742188 67.75 135.679688 67.84375 C 135.621094 67.933594 135.558594 68.023438 135.488281 68.113281 C 135.425781 68.199219 135.359375 68.285156 135.292969 68.371094 C 135.132812 68.578125 134.960938 68.773438 134.78125 68.960938 C 134.730469 69.015625 134.679688 69.066406 134.625 69.121094 C 134.519531 69.230469 134.414062 69.332031 134.304688 69.429688 C 134.25 69.480469 134.199219 69.527344 134.140625 69.578125 C 134.039062 69.664062 133.941406 69.746094 133.84375 69.828125 C 133.8125 69.855469 133.777344 69.882812 133.746094 69.910156 C 133.542969 70.070312 133.332031 70.222656 133.125 70.363281 C 133.078125 70.398438 133.027344 70.4375 132.976562 70.46875 C 132.949219 70.484375 132.929688 70.503906 132.902344 70.515625 C 132.882812 70.523438 132.871094 70.539062 132.855469 70.546875 C 132.429688 70.824219 132.003906 71.0625 131.601562 71.261719 C 131.546875 71.292969 131.492188 71.316406 131.433594 71.34375 C 131.105469 71.5 130.796875 71.636719 130.507812 71.75 C 130.40625 71.789062 130.3125 71.824219 130.222656 71.855469 C 130.125 71.894531 130.03125 71.929688 129.945312 71.960938 C 129.871094 71.988281 129.796875 72.011719 129.726562 72.035156 C 129.347656 72.160156 129.054688 72.242188 128.875 72.285156 C 128.847656 72.289062 128.828125 72.296875 128.804688 72.300781 C 128.730469 72.316406 128.683594 72.328125 128.683594 72.328125 L 115.667969 83.085938 C 114.332031 81.472656 113.515625 79.773438 113.058594 78.109375 C 111.363281 71.964844 114.539062 66.210938 114.539062 66.210938 C 115.742188 65.351562 116.914062 64.527344 118.019531 63.75 C 118.140625 63.664062 118.261719 63.578125 118.382812 63.488281 C 119.773438 62.511719 121.035156 61.621094 122.117188 60.871094 C 122.25 60.78125 122.375 60.691406 122.496094 60.605469 C 123.222656 60.101562 123.855469 59.664062 124.359375 59.320312 C 124.421875 59.277344 124.480469 59.234375 124.542969 59.195312 C 124.550781 59.191406 124.550781 59.191406 124.550781 59.191406 C 124.648438 59.125 124.738281 59.0625 124.828125 59 C 124.980469 58.898438 125.113281 58.8125 125.230469 58.734375 C 125.277344 58.703125 125.320312 58.671875 125.359375 58.648438 C 125.480469 58.566406 125.582031 58.511719 125.648438 58.464844 C 127.816406 57.183594 138.292969 60.3125 136.710938 65.65625 Z M 136.710938 65.65625 " fill-opacity="1" fill-rule="nonzero"/><path fill="#ffffff" d="M 136.960938 65.40625 C 136.40625 67.277344 135.261719 68.652344 134.003906 69.652344 C 134.816406 67.929688 135.257812 65.957031 134.550781 64.097656 C 133.296875 60.789062 127.535156 60.136719 123.472656 59.855469 C 124.015625 59.488281 125.730469 58.316406 125.914062 58.207031 C 128.0625 56.933594 138.542969 60.0625 136.960938 65.40625 Z M 136.960938 65.40625 " fill-opacity="0.6" fill-rule="nonzero"/><path fill="#371a45" d="M 99.683594 97.003906 C 99.613281 97.003906 99.542969 96.996094 99.46875 96.972656 C 99.238281 96.902344 99.058594 96.714844 98.996094 96.480469 L 94.464844 80.199219 C 94.382812 79.90625 94.492188 79.597656 94.738281 79.425781 C 95.894531 78.597656 123.144531 59.113281 125.296875 57.839844 C 127.101562 56.769531 132.238281 58.046875 135.113281 60.269531 C 137.179688 61.871094 137.992188 63.855469 137.402344 65.859375 C 135.847656 71.097656 130.136719 72.710938 129.023438 72.980469 L 100.144531 96.839844 C 100.011719 96.953125 99.851562 97.003906 99.683594 97.003906 Z M 95.980469 80.296875 L 100.085938 95.035156 L 128.242188 71.769531 C 128.332031 71.691406 128.4375 71.644531 128.554688 71.617188 C 128.613281 71.601562 134.589844 70.3125 136.027344 65.453125 C 136.453125 64.011719 135.847656 62.648438 134.234375 61.398438 C 131.40625 59.207031 127.003906 58.492188 126.035156 59.0625 C 124.070312 60.230469 99.460938 77.808594 95.980469 80.296875 Z M 95.980469 80.296875 " fill-opacity="1" fill-rule="nonzero"/><path fill="#371a45" d="M 126.0625 64.160156 C 127.097656 64.121094 128.109375 64.257812 129.117188 64.511719 C 129.617188 64.644531 130.113281 64.8125 130.601562 65.03125 C 131.089844 65.25 131.574219 65.519531 132.023438 65.921875 C 132.246094 66.121094 132.460938 66.359375 132.628906 66.667969 C 132.796875 66.972656 132.90625 67.351562 132.886719 67.734375 C 132.878906 67.828125 132.867188 67.921875 132.851562 68.011719 C 132.839844 68.105469 132.816406 68.164062 132.796875 68.246094 C 132.78125 68.316406 132.753906 68.394531 132.726562 68.46875 C 132.699219 68.546875 132.671875 68.617188 132.636719 68.6875 C 132.507812 68.980469 132.308594 69.269531 132.058594 69.5 C 131.808594 69.734375 131.496094 69.910156 131.1875 70.011719 C 130.878906 70.113281 130.570312 70.160156 130.273438 70.171875 C 129.972656 70.183594 129.683594 70.164062 129.402344 70.117188 C 129.265625 70.097656 129.125 70.070312 128.984375 70.039062 C 128.84375 70.003906 128.722656 69.976562 128.554688 69.917969 L 129.410156 69.234375 C 129.429688 69.382812 129.4375 69.480469 129.441406 69.601562 C 129.449219 69.714844 129.453125 69.832031 129.453125 69.949219 C 129.453125 70.179688 129.4375 70.410156 129.417969 70.636719 C 129.367188 71.097656 129.273438 71.558594 129.105469 72.007812 C 128.9375 72.460938 128.699219 72.898438 128.375 73.277344 C 128.058594 73.664062 127.652344 73.984375 127.21875 74.21875 C 126.78125 74.457031 126.308594 74.589844 125.851562 74.671875 C 125.382812 74.765625 124.925781 74.757812 124.476562 74.730469 C 124.257812 74.703125 124.035156 74.679688 123.8125 74.632812 C 123.597656 74.578125 123.382812 74.539062 123.175781 74.46875 C 122.757812 74.339844 122.355469 74.164062 121.972656 73.953125 C 121.921875 73.921875 121.902344 73.859375 121.933594 73.804688 C 121.953125 73.773438 121.988281 73.753906 122.023438 73.753906 L 122.027344 73.753906 C 122.890625 73.703125 123.707031 73.707031 124.476562 73.628906 C 125.246094 73.539062 125.980469 73.398438 126.5625 73.046875 C 127.148438 72.703125 127.574219 72.179688 127.832031 71.527344 C 127.964844 71.199219 128.050781 70.847656 128.105469 70.480469 C 128.132812 70.296875 128.152344 70.113281 128.15625 69.925781 C 128.160156 69.832031 128.160156 69.738281 128.160156 69.648438 C 128.160156 69.5625 128.152344 69.457031 128.148438 69.394531 L 128.140625 69.367188 C 128.109375 69.019531 128.367188 68.707031 128.722656 68.675781 C 128.820312 68.664062 128.917969 68.679688 129.003906 68.710938 C 129.074219 68.738281 129.191406 68.773438 129.289062 68.800781 C 129.394531 68.828125 129.5 68.847656 129.609375 68.867188 C 129.820312 68.902344 130.03125 68.921875 130.234375 68.910156 C 130.636719 68.898438 130.976562 68.785156 131.1875 68.566406 C 131.296875 68.460938 131.386719 68.324219 131.449219 68.160156 C 131.464844 68.121094 131.480469 68.082031 131.492188 68.035156 C 131.507812 67.992188 131.519531 67.949219 131.527344 67.902344 C 131.539062 67.855469 131.554688 67.796875 131.554688 67.773438 C 131.554688 67.742188 131.558594 67.710938 131.566406 67.679688 C 131.558594 67.5625 131.523438 67.449219 131.453125 67.320312 C 131.382812 67.191406 131.261719 67.050781 131.117188 66.921875 C 130.972656 66.789062 130.796875 66.664062 130.617188 66.539062 C 130.429688 66.417969 130.242188 66.296875 130.039062 66.1875 C 129.636719 65.964844 129.207031 65.761719 128.761719 65.5625 C 127.882812 65.164062 126.960938 64.789062 126.042969 64.367188 L 126.039062 64.367188 C 125.984375 64.339844 125.960938 64.277344 125.984375 64.222656 C 125.984375 64.1875 126.019531 64.164062 126.0625 64.160156 Z M 126.0625 64.160156 " fill-opacity="1" fill-rule="nonzero"/><path fill="#371a45" d="M 129.058594 62.09375 C 129.269531 62.640625 129.453125 63.148438 129.660156 63.628906 C 129.757812 63.871094 129.863281 64.097656 129.953125 64.324219 C 130.039062 64.558594 130.132812 64.773438 130.179688 65.019531 L 130.191406 65.085938 C 130.253906 65.429688 130.027344 65.761719 129.679688 65.824219 C 129.4375 65.867188 129.207031 65.769531 129.0625 65.585938 C 128.867188 65.335938 128.734375 65.046875 128.65625 64.75 C 128.578125 64.453125 128.546875 64.148438 128.542969 63.84375 C 128.535156 63.539062 128.558594 63.238281 128.613281 62.949219 C 128.667969 62.652344 128.742188 62.367188 128.878906 62.085938 C 128.902344 62.035156 128.957031 62.019531 129.007812 62.042969 C 129.03125 62.050781 129.046875 62.074219 129.058594 62.09375 Z M 129.058594 62.09375 " fill-opacity="1" fill-rule="nonzero"/><path fill="#390075" d="M 132.910156 70.511719 C 132.910156 70.511719 132.90625 70.511719 132.910156 70.511719 C 132.894531 70.519531 132.878906 70.535156 132.867188 70.542969 C 132.441406 70.820312 132.011719 71.058594 131.609375 71.257812 C 131.554688 71.289062 131.503906 71.3125 131.445312 71.339844 C 131.117188 71.496094 130.808594 71.632812 130.515625 71.746094 C 130.417969 71.785156 130.324219 71.820312 130.234375 71.851562 C 130.132812 71.886719 130.039062 71.925781 129.953125 71.957031 C 129.878906 71.980469 129.804688 72.007812 129.734375 72.03125 C 129.359375 72.15625 129.0625 72.238281 128.882812 72.28125 C 128.855469 72.285156 128.835938 72.289062 128.816406 72.296875 C 128.738281 72.3125 128.695312 72.320312 128.695312 72.320312 L 115.675781 83.082031 L 99.683594 96.289062 L 95.15625 80.007812 C 95.15625 80.007812 100.632812 76.085938 106.957031 71.589844 C 108.257812 76.355469 110.648438 77.9375 113.066406 78.101562 C 116.800781 78.355469 120.617188 75.230469 120.617188 75.230469 C 118.546875 74.414062 120.21875 71.914062 120.21875 71.914062 C 126.234375 72.128906 126.496094 67.75 127.285156 67.410156 C 128.078125 67.066406 132.1875 67.9375 132.1875 67.9375 C 133.175781 68.4375 133.230469 69.445312 132.910156 70.511719 Z M 132.910156 70.511719 " fill-opacity="0.2" fill-rule="nonzero"/><path fill="#f92323" d="M 71.402344 92.992188 C 70.367188 95.175781 68.792969 97.742188 66.472656 100.738281 C 61.363281 107.339844 55.148438 111.378906 49.375 113.691406 C 42.589844 116.410156 36.417969 116.726562 33.375 115.992188 C 27.730469 114.632812 31.296875 107.246094 21.917969 110.25 C 12.539062 113.253906 13.070312 108.296875 19.40625 103.210938 C 19.453125 103.167969 19.503906 103.128906 19.558594 103.089844 C 25.886719 98.121094 34.839844 98.078125 39 96.53125 C 43.191406 94.976562 48.648438 91.046875 55.347656 87.25 C 62.050781 83.457031 71.570312 81.878906 71.570312 81.878906 C 71.570312 81.878906 73.210938 83.105469 73.195312 86.3125 C 73.191406 87.976562 72.746094 90.164062 71.402344 92.992188 Z M 71.402344 92.992188 " fill-opacity="1" fill-rule="nonzero"/><path fill="#371a45" d="M 71.402344 92.992188 C 70.367188 95.175781 68.792969 97.742188 66.472656 100.738281 C 61.363281 107.339844 55.148438 111.378906 49.375 113.691406 C 35.421875 116.078125 30.976562 108.578125 29.472656 107.679688 C 27.492188 106.5 18.941406 109.292969 19.023438 108.011719 C 19.101562 106.730469 23.808594 103.199219 33.238281 102.777344 C 42.667969 102.351562 48.777344 96.691406 51.460938 95.035156 C 54.140625 93.375 63.4375 91.109375 63.4375 91.109375 C 63.4375 91.109375 67.671875 91.613281 71.402344 92.992188 Z M 71.402344 92.992188 " fill-opacity="0.3" fill-rule="nonzero"/><path fill="#ffffff" d="M 73.195312 86.316406 C 70.03125 86.441406 71.632812 81.414062 56.425781 88.960938 C 52.460938 90.925781 47.707031 95.964844 39.777344 98.625 C 36.230469 99.8125 26.957031 100.921875 19.558594 103.089844 C 25.886719 98.121094 34.839844 98.078125 39 96.53125 C 43.191406 94.976562 48.648438 91.046875 55.347656 87.25 C 62.050781 83.457031 71.570312 81.878906 71.570312 81.878906 C 71.570312 81.878906 73.210938 83.109375 73.195312 86.316406 Z M 73.195312 86.316406 " fill-opacity="0.6" fill-rule="nonzero"/><path fill="#371a45" d="M 36.824219 117.046875 C 35.347656 117.046875 34.121094 116.910156 33.207031 116.691406 C 30.617188 116.070312 29.695312 114.269531 28.953125 112.824219 C 27.914062 110.792969 27.164062 109.324219 22.136719 110.933594 C 17.8125 112.320312 15.171875 112.195312 14.285156 110.5625 C 13.316406 108.773438 15.109375 105.742188 18.957031 102.65625 C 23.496094 99.011719 29.246094 97.90625 33.867188 97.023438 C 35.828125 96.648438 37.523438 96.320312 38.75 95.863281 C 41.371094 94.894531 44.546875 92.941406 48.226562 90.679688 C 50.363281 89.367188 52.578125 88.007812 55 86.632812 C 61.730469 82.820312 71.0625 81.242188 71.457031 81.179688 C 71.648438 81.148438 71.847656 81.199219 72.003906 81.316406 C 72.0625 81.359375 73.480469 82.445312 73.839844 85.050781 C 74.230469 87.902344 73.367188 93.019531 67.046875 101.175781 C 60.832031 109.203125 53.320312 113.085938 48.117188 114.933594 C 43.699219 116.492188 39.765625 117.046875 36.824219 117.046875 Z M 25.613281 108.835938 C 28.527344 108.835938 29.421875 110.585938 30.234375 112.171875 C 30.933594 113.539062 31.59375 114.832031 33.542969 115.300781 C 36.285156 115.960938 41.703125 115.683594 47.632812 113.582031 C 52.65625 111.804688 59.90625 108.054688 65.90625 100.300781 C 71.425781 93.167969 72.527344 88.65625 72.480469 86.121094 C 72.4375 84.117188 71.707031 83.058594 71.339844 82.652344 C 69.578125 82.976562 61.503906 84.597656 55.707031 87.878906 C 53.308594 89.234375 51.105469 90.589844 48.980469 91.894531 C 45.238281 94.199219 42.003906 96.183594 39.253906 97.207031 C 37.917969 97.703125 36.167969 98.039062 34.140625 98.425781 C 29.675781 99.285156 24.121094 100.347656 19.863281 103.769531 C 16.414062 106.535156 15.070312 108.984375 15.554688 109.882812 C 15.90625 110.535156 17.730469 110.84375 21.703125 109.570312 C 23.3125 109.050781 24.585938 108.835938 25.613281 108.835938 Z M 25.613281 108.835938 " fill-opacity="1" fill-rule="nonzero"/><path fill="#371a45" d="M 72.328125 82.664062 C 70.851562 84.585938 69.289062 86.394531 67.609375 88.117188 C 66.765625 88.976562 65.894531 89.8125 64.96875 90.59375 C 64.050781 91.382812 63.074219 92.121094 62.015625 92.75 C 61.480469 93.0625 60.925781 93.34375 60.332031 93.570312 L 59.882812 93.730469 L 59.480469 93.863281 C 59.214844 93.960938 58.945312 94.0625 58.679688 94.179688 C 57.628906 94.640625 56.609375 95.226562 55.613281 95.847656 C 53.617188 97.097656 51.6875 98.496094 49.667969 99.78125 C 47.65625 101.066406 45.554688 102.257812 43.304688 103.121094 C 41.058594 103.984375 38.671875 104.472656 36.277344 104.597656 C 33.878906 104.738281 31.5 104.5 29.125 104.523438 C 27.9375 104.53125 26.753906 104.617188 25.582031 104.824219 C 24.410156 105.019531 23.261719 105.347656 22.144531 105.757812 C 23.253906 105.320312 24.394531 104.960938 25.5625 104.734375 C 26.734375 104.496094 27.925781 104.386719 29.121094 104.339844 C 31.507812 104.257812 33.890625 104.433594 36.25 104.238281 C 38.605469 104.058594 40.925781 103.519531 43.097656 102.621094 C 45.273438 101.722656 47.304688 100.503906 49.265625 99.183594 C 51.230469 97.863281 53.121094 96.417969 55.117188 95.09375 C 56.121094 94.429688 57.152344 93.796875 58.265625 93.277344 C 58.542969 93.144531 58.828125 93.027344 59.117188 92.914062 L 59.554688 92.753906 L 59.945312 92.605469 C 60.457031 92.390625 60.960938 92.125 61.445312 91.824219 C 62.414062 91.210938 63.324219 90.488281 64.191406 89.710938 C 65.058594 88.933594 65.886719 88.101562 66.683594 87.242188 C 68.277344 85.527344 69.785156 83.695312 71.152344 81.8125 L 71.160156 81.796875 C 71.394531 81.476562 71.84375 81.410156 72.160156 81.640625 C 72.484375 81.875 72.550781 82.320312 72.316406 82.636719 C 72.332031 82.65625 72.328125 82.660156 72.328125 82.664062 Z M 72.328125 82.664062 " fill-opacity="1" fill-rule="nonzero"/><path fill="#371a45" d="M 31.992188 116.359375 L 15.1875 124.027344 L 31.347656 115.085938 C 31.691406 114.894531 32.128906 115.019531 32.324219 115.363281 C 32.515625 115.707031 32.390625 116.144531 32.046875 116.335938 C 32.027344 116.347656 32.007812 116.355469 31.992188 116.359375 Z M 31.992188 116.359375 " fill-opacity="1" fill-rule="nonzero"/><path fill="#371a45" d="M 44.957031 116.082031 L 21.84375 126.925781 L 44.308594 114.808594 C 44.660156 114.621094 45.09375 114.75 45.28125 115.097656 C 45.472656 115.449219 45.339844 115.882812 44.992188 116.070312 C 44.980469 116.070312 44.96875 116.078125 44.957031 116.082031 Z M 44.957031 116.082031 " fill-opacity="1" fill-rule="nonzero"/><path fill="#ffffff" d="M 104.933594 92.21875 C 104.25 95.628906 102.855469 99.421875 100.554688 103.582031 C 91.238281 120.421875 73.550781 129.808594 58.421875 133.953125 C 57.65625 134.164062 54.410156 134.777344 54.410156 134.777344 C 54.410156 134.777344 50.261719 140.277344 46.035156 138.164062 C 43.425781 136.859375 42.433594 134.34375 43.703125 129.875 C 44.75 126.203125 46.292969 124.050781 50.378906 121.46875 C 54.925781 118.589844 58.550781 114.972656 59.480469 114.011719 C 59.632812 113.855469 59.714844 113.773438 59.714844 113.773438 C 59.714844 113.773438 57.753906 110.09375 58.265625 104.394531 C 58.398438 102.90625 58.699219 101.277344 59.25 99.539062 C 60.339844 96.09375 62.414062 92.222656 66.078125 88.15625 C 66.617188 87.558594 67.136719 86.984375 67.648438 86.421875 C 68.375 85.621094 69.070312 84.855469 69.746094 84.121094 C 79.703125 73.289062 84.382812 69.558594 91.90625 70.363281 C 99.246094 71.152344 107.636719 78.71875 104.933594 92.21875 Z M 104.933594 92.21875 " fill-opacity="1" fill-rule="nonzero"/><path fill="#f92323" d="M 51.101562 121 C 50.863281 121.15625 50.621094 121.316406 50.378906 121.46875 C 46.296875 124.050781 44.75 126.203125 43.703125 129.875 C 42.433594 134.34375 43.425781 136.859375 46.035156 138.164062 C 50.261719 140.277344 54.410156 134.777344 54.410156 134.777344 C 54.410156 134.777344 57.648438 134.160156 58.421875 133.953125 C 59.085938 133.769531 59.753906 133.578125 60.421875 133.375 C 53.445312 131.746094 51.339844 122.214844 51.101562 121 Z M 51.101562 121 " fill-opacity="1" fill-rule="nonzero"/><path fill="#371a45" d="M 101.257812 102.253906 C 101.035156 102.691406 100.796875 103.128906 100.550781 103.574219 C 91.234375 120.417969 73.546875 129.804688 58.417969 133.949219 C 57.648438 134.160156 54.40625 134.769531 54.40625 134.769531 C 54.40625 134.769531 50.257812 140.273438 46.03125 138.160156 C 43.421875 136.855469 42.429688 134.335938 43.699219 129.871094 C 44.746094 126.199219 46.289062 124.046875 50.375 121.464844 C 54.921875 118.585938 58.546875 114.96875 59.476562 114.007812 C 59.628906 113.851562 59.707031 113.765625 59.707031 113.765625 C 59.707031 113.765625 54.90625 104.746094 62.296875 93.085938 C 57.355469 103.277344 61.363281 110.804688 61.363281 110.804688 C 61.363281 110.804688 61 110.875 61.128906 111.046875 C 70.105469 123.007812 59.304688 119.25 54.800781 120.8125 C 50.355469 122.347656 47.628906 125.082031 46.457031 127.8125 C 45.210938 130.71875 45.179688 134.691406 47.742188 136.085938 C 50.230469 137.445312 52.054688 135.414062 52.054688 135.414062 C 52.054688 135.414062 50.472656 135.066406 49.390625 133.949219 C 48.03125 132.539062 48.71875 130.472656 48.71875 130.472656 C 48.71875 130.472656 52.617188 131.777344 59.699219 130.308594 C 66.792969 128.851562 91.730469 118.066406 101.257812 102.253906 Z M 101.257812 102.253906 " fill-opacity="0.3" fill-rule="nonzero"/><path fill="#371a45" d="M 48.074219 139.371094 C 47.304688 139.371094 46.515625 139.207031 45.714844 138.804688 C 42.597656 137.242188 41.710938 134.261719 43.011719 129.683594 C 44.152344 125.675781 45.914062 123.449219 49.992188 120.867188 C 54.289062 118.144531 57.789062 114.714844 58.851562 113.628906 C 58.402344 112.589844 57.445312 109.9375 57.457031 106.191406 C 57.476562 101.816406 58.890625 95.050781 65.539062 87.675781 C 77.742188 74.144531 83.046875 68.691406 91.980469 69.652344 C 96.960938 70.191406 101.601562 73.472656 104.082031 78.222656 C 105.738281 81.394531 106.414062 85.0625 106.09375 89.121094 C 105.730469 93.710938 104.082031 98.695312 101.1875 103.925781 L 100.558594 103.582031 L 101.1875 103.925781 C 96.835938 111.785156 90.40625 118.582031 82.070312 124.125 C 75.210938 128.679688 67.101562 132.316406 58.613281 134.640625 C 57.949219 134.824219 55.609375 135.277344 54.816406 135.429688 C 54.09375 136.304688 51.347656 139.371094 48.074219 139.371094 Z M 90.015625 70.972656 C 82.921875 70.972656 78.046875 75.953125 66.609375 88.632812 C 60.292969 95.636719 58.929688 102.003906 58.890625 106.113281 C 58.855469 110.566406 60.328125 113.410156 60.339844 113.4375 C 60.484375 113.703125 60.441406 114.035156 60.234375 114.253906 C 60.066406 114.433594 56.066406 118.707031 50.761719 122.066406 C 46.984375 124.460938 45.433594 126.402344 44.394531 130.070312 C 42.949219 135.148438 44.824219 136.757812 46.359375 137.519531 C 49.996094 139.339844 53.800781 134.390625 53.839844 134.34375 C 53.949219 134.199219 54.105469 134.101562 54.28125 134.070312 C 55.394531 133.859375 57.648438 133.417969 58.234375 133.257812 C 67.125 130.824219 88.976562 123.023438 99.933594 103.226562 C 105.109375 93.875 106.125 85.226562 102.8125 78.875 C 100.550781 74.542969 96.339844 71.554688 91.828125 71.066406 C 91.203125 71.007812 90.597656 70.972656 90.015625 70.972656 Z M 90.015625 70.972656 " fill-opacity="1" fill-rule="nonzero"/><path fill="#371a45" d="M 44.417969 128.851562 L 21.308594 139.695312 L 43.769531 127.578125 C 44.121094 127.390625 44.554688 127.519531 44.746094 127.871094 C 44.933594 128.21875 44.804688 128.652344 44.453125 128.839844 C 44.445312 128.839844 44.429688 128.847656 44.417969 128.851562 Z M 44.417969 128.851562 " fill-opacity="1" fill-rule="nonzero"/><g clip-path="url(#bb63b7338f)"><path fill="#371a45" d="M 46.269531 139.285156 L 28.023438 147.675781 L 45.621094 138.007812 C 45.964844 137.816406 46.402344 137.945312 46.597656 138.289062 C 46.789062 138.632812 46.660156 139.070312 46.316406 139.261719 C 46.300781 139.269531 46.28125 139.277344 46.269531 139.285156 Z M 46.269531 139.285156 " fill-opacity="1" fill-rule="nonzero"/></g><path fill="#371a45" d="M 48.753906 130.285156 C 49.113281 130.816406 49.507812 131.316406 49.933594 131.761719 C 50.355469 132.214844 50.808594 132.617188 51.289062 132.949219 C 51.527344 133.117188 51.777344 133.257812 52.027344 133.382812 C 52.28125 133.507812 52.535156 133.617188 52.796875 133.703125 C 53.3125 133.890625 53.847656 133.976562 54.40625 134.054688 L 54.445312 134.0625 C 54.84375 134.117188 55.109375 134.480469 55.058594 134.875 C 55.007812 135.203125 54.738281 135.457031 54.414062 135.488281 C 53.6875 135.558594 52.925781 135.4375 52.238281 135.152344 C 51.550781 134.878906 50.949219 134.425781 50.449219 133.925781 C 49.949219 133.421875 49.546875 132.847656 49.234375 132.246094 C 48.925781 131.636719 48.683594 131.011719 48.566406 130.351562 C 48.558594 130.292969 48.59375 130.238281 48.652344 130.230469 C 48.691406 130.222656 48.730469 130.238281 48.753906 130.273438 Z M 48.753906 130.285156 " fill-opacity="1" fill-rule="nonzero"/><path fill="#371a45" d="M 53.789062 127.664062 C 53.6875 127.664062 53.589844 127.636719 53.5 127.578125 C 50.835938 125.890625 50.835938 121.015625 50.835938 120.8125 C 50.835938 120.515625 51.078125 120.28125 51.375 120.28125 C 51.375 120.28125 51.375 120.28125 51.378906 120.28125 C 51.675781 120.28125 51.917969 120.519531 51.914062 120.820312 C 51.914062 120.867188 51.917969 125.304688 54.078125 126.675781 C 54.332031 126.835938 54.402344 127.167969 54.246094 127.417969 C 54.136719 127.574219 53.960938 127.664062 53.789062 127.664062 Z M 53.789062 127.664062 " fill-opacity="1" fill-rule="nonzero"/><g clip-path="url(#5de4a931c4)"><path fill="#371a45" d="M 15.472656 111.164062 L -1.332031 118.832031 L 14.824219 109.890625 C 15.171875 109.699219 15.609375 109.824219 15.804688 110.167969 C 15.996094 110.511719 15.871094 110.949219 15.523438 111.144531 C 15.507812 111.148438 15.488281 111.15625 15.472656 111.164062 Z M 15.472656 111.164062 " fill-opacity="1" fill-rule="nonzero"/></g><path fill="#390075" d="M 115.15625 81.464844 C 114.949219 81.464844 114.742188 81.375 114.601562 81.203125 C 111.910156 77.945312 110.84375 73.851562 111.53125 69.363281 C 112.042969 66 113.339844 63.628906 113.394531 63.53125 C 113.585938 63.1875 114.019531 63.054688 114.367188 63.25 C 114.710938 63.4375 114.84375 63.875 114.648438 64.21875 C 114.601562 64.308594 109.835938 73.199219 115.703125 80.296875 C 115.953125 80.601562 115.910156 81.050781 115.605469 81.300781 C 115.480469 81.410156 115.316406 81.464844 115.15625 81.464844 Z M 115.15625 81.464844 " fill-opacity="1" fill-rule="nonzero"/><path fill="#ffffff" d="M 75.714844 110.753906 C 87.847656 118.875 80.535156 127.898438 70.980469 130.320312 C 69.636719 130.660156 66.796875 131.183594 66.796875 131.183594 C 66.796875 131.183594 61.023438 138.808594 54.785156 135.570312 C 51.351562 133.789062 51.765625 127.488281 53.472656 124.738281 C 55.9375 120.777344 59.6875 118.886719 59.636719 118.835938 C 54.300781 114.003906 55.894531 107.875 55.894531 107.875 Z M 75.714844 110.753906 " fill-opacity="1" fill-rule="nonzero"/><path fill="#f92323" d="M 63.015625 117.417969 C 63.015625 117.417969 63.722656 130.585938 75.003906 129.082031 C 75.003906 129.082031 70.921875 130.816406 66.4375 131.261719 C 66.4375 131.261719 63.171875 137.398438 55.496094 135.894531 C 55.496094 135.894531 50.101562 133.242188 53 125.65625 C 53 125.660156 56.003906 119.441406 63.015625 117.417969 Z M 63.015625 117.417969 " fill-opacity="1" fill-rule="nonzero"/><path fill="#371a45" d="M 74.761719 128.957031 C 73.574219 129.523438 72.300781 129.984375 70.980469 130.316406 C 69.636719 130.65625 66.792969 131.175781 66.792969 131.175781 C 66.792969 131.175781 61.019531 138.804688 54.777344 135.566406 C 51.347656 133.785156 51.761719 127.484375 53.46875 124.730469 C 55.933594 120.773438 59.683594 118.878906 59.632812 118.832031 C 54.292969 114 55.890625 107.871094 55.890625 107.871094 L 58.875 108.304688 C 59.035156 110.941406 60.0625 115.710938 65.257812 116.40625 C 68.765625 117.996094 59.011719 119.523438 56.457031 123.421875 C 53.789062 127.484375 53.972656 133.507812 57.765625 134.257812 C 62.449219 135.1875 64.632812 132.042969 64.632812 132.042969 C 64.632812 132.042969 60.785156 132.191406 59.457031 129.714844 C 58.386719 127.71875 60.070312 125.652344 60.070312 125.652344 C 60.070312 125.652344 64.613281 130.308594 73.964844 129 C 74.230469 128.972656 74.492188 128.984375 74.761719 128.957031 Z M 74.761719 128.957031 " fill-opacity="0.3" fill-rule="nonzero"/><path fill="#371a45" d="M 75.84375 110.554688 C 77.011719 111.242188 78.117188 112.042969 79.140625 112.960938 C 80.148438 113.890625 81.070312 114.964844 81.738281 116.222656 C 82.410156 117.46875 82.777344 118.929688 82.703125 120.394531 C 82.625 121.863281 82.097656 123.273438 81.320312 124.480469 C 80.539062 125.691406 79.535156 126.714844 78.433594 127.589844 C 77.332031 128.464844 76.117188 129.175781 74.851562 129.757812 C 73.585938 130.335938 72.269531 130.789062 70.914062 131.109375 C 69.574219 131.417969 68.257812 131.660156 66.925781 131.90625 L 67.378906 131.628906 C 67.042969 132.054688 66.714844 132.414062 66.367188 132.785156 C 66.015625 133.148438 65.652344 133.5 65.277344 133.835938 C 64.515625 134.507812 63.707031 135.121094 62.816406 135.644531 C 61.933594 136.164062 60.972656 136.589844 59.945312 136.851562 C 58.921875 137.105469 57.824219 137.175781 56.761719 136.992188 C 56.226562 136.90625 55.710938 136.757812 55.214844 136.558594 C 54.964844 136.460938 54.726562 136.347656 54.488281 136.226562 C 54.234375 136.101562 53.984375 135.945312 53.761719 135.773438 C 52.839844 135.066406 52.261719 134.054688 51.925781 133.050781 C 51.589844 132.035156 51.464844 130.988281 51.464844 129.960938 C 51.464844 128.933594 51.589844 127.910156 51.835938 126.914062 C 51.960938 126.414062 52.117188 125.917969 52.320312 125.433594 C 52.417969 125.191406 52.535156 124.949219 52.660156 124.714844 C 52.722656 124.597656 52.796875 124.476562 52.867188 124.359375 L 53.074219 124.039062 C 53.628906 123.191406 54.269531 122.398438 54.964844 121.664062 C 55.65625 120.933594 56.410156 120.261719 57.210938 119.644531 C 57.609375 119.335938 58.019531 119.046875 58.4375 118.769531 C 58.648438 118.628906 58.867188 118.496094 59.070312 118.367188 L 59.199219 118.285156 C 59.203125 118.285156 59.191406 118.289062 59.191406 118.289062 L 59.164062 118.3125 C 59.179688 118.304688 59.101562 118.367188 59.054688 118.4375 C 58.757812 118.941406 59.402344 119.773438 59.148438 119.367188 L 59.121094 119.339844 L 59.054688 119.277344 L 58.78125 119.019531 C 57.3125 117.605469 56.160156 115.808594 55.542969 113.847656 C 55.230469 112.863281 55.042969 111.847656 54.980469 110.820312 C 54.949219 110.308594 54.953125 109.792969 54.984375 109.28125 C 55 109.019531 55.027344 108.765625 55.0625 108.507812 C 55.078125 108.375 55.097656 108.246094 55.121094 108.117188 C 55.140625 107.984375 55.164062 107.867188 55.207031 107.707031 C 55.300781 107.320312 55.683594 107.085938 56.070312 107.179688 C 56.457031 107.273438 56.691406 107.65625 56.601562 108.042969 L 56.597656 108.0625 C 56.578125 108.140625 56.550781 108.261719 56.539062 108.363281 C 56.519531 108.46875 56.5 108.582031 56.488281 108.695312 C 56.460938 108.917969 56.433594 109.140625 56.421875 109.367188 C 56.394531 109.820312 56.390625 110.277344 56.417969 110.730469 C 56.46875 111.640625 56.636719 112.542969 56.910156 113.410156 C 57.460938 115.144531 58.460938 116.71875 59.789062 117.996094 L 60.046875 118.238281 L 60.109375 118.300781 L 60.125 118.3125 L 60.136719 118.320312 C 59.882812 117.914062 60.539062 118.753906 60.234375 119.265625 C 60.179688 119.339844 60.097656 119.410156 60.101562 119.402344 L 60.058594 119.441406 L 60.019531 119.472656 C 59.9375 119.523438 59.894531 119.550781 59.839844 119.585938 C 59.632812 119.714844 59.433594 119.835938 59.242188 119.96875 C 58.851562 120.226562 58.472656 120.496094 58.097656 120.78125 C 57.359375 121.351562 56.660156 121.972656 56.015625 122.652344 C 55.375 123.328125 54.792969 124.058594 54.285156 124.824219 L 54.097656 125.117188 C 54.042969 125.207031 53.988281 125.300781 53.9375 125.394531 C 53.832031 125.582031 53.738281 125.78125 53.65625 125.984375 C 53.488281 126.390625 53.347656 126.824219 53.242188 127.261719 C 53.019531 128.140625 52.910156 129.058594 52.914062 129.964844 C 52.914062 130.875 53.03125 131.777344 53.304688 132.601562 C 53.578125 133.425781 54.027344 134.164062 54.652344 134.644531 C 54.808594 134.765625 54.972656 134.871094 55.15625 134.964844 C 55.351562 135.0625 55.550781 135.15625 55.757812 135.234375 C 56.164062 135.398438 56.582031 135.519531 57.011719 135.585938 C 57.871094 135.726562 58.753906 135.679688 59.613281 135.464844 C 60.476562 135.25 61.308594 134.882812 62.101562 134.414062 C 62.882812 133.945312 63.628906 133.382812 64.320312 132.761719 C 64.664062 132.445312 65 132.125 65.320312 131.785156 C 65.632812 131.449219 65.957031 131.089844 66.21875 130.75 C 66.335938 130.597656 66.496094 130.503906 66.671875 130.472656 C 67.976562 130.222656 69.300781 129.960938 70.574219 129.65625 C 71.824219 129.34375 73.058594 128.929688 74.222656 128.382812 C 75.394531 127.84375 76.507812 127.1875 77.519531 126.414062 C 78.53125 125.640625 79.441406 124.738281 80.128906 123.703125 C 80.824219 122.679688 81.296875 121.519531 81.40625 120.308594 C 81.46875 119.703125 81.433594 119.089844 81.320312 118.488281 C 81.199219 117.882812 81.011719 117.289062 80.746094 116.71875 C 80.21875 115.574219 79.445312 114.523438 78.554688 113.570312 C 78.109375 113.09375 77.636719 112.636719 77.136719 112.203125 C 76.636719 111.773438 76.117188 111.359375 75.589844 110.957031 C 75.484375 110.875 75.460938 110.726562 75.542969 110.621094 C 75.605469 110.515625 75.742188 110.496094 75.84375 110.554688 Z M 75.84375 110.554688 " fill-opacity="1" fill-rule="nonzero"/><path fill="#371a45" d="M 59.152344 118.4375 C 59.457031 118.242188 59.753906 118.09375 60.058594 117.949219 C 60.359375 117.808594 60.664062 117.679688 60.96875 117.558594 C 61.578125 117.308594 62.203125 117.097656 62.820312 116.886719 L 64.6875 116.265625 C 65.3125 116.058594 65.9375 115.867188 66.53125 115.613281 L 66.539062 115.609375 C 66.585938 115.589844 66.640625 115.609375 66.65625 115.65625 C 66.671875 115.695312 66.660156 115.734375 66.640625 115.757812 C 66.140625 116.234375 65.566406 116.585938 65.007812 116.941406 C 64.4375 117.285156 63.859375 117.609375 63.273438 117.917969 C 62.691406 118.226562 62.109375 118.53125 61.511719 118.804688 C 60.925781 119.078125 60.304688 119.335938 59.738281 119.546875 L 59.714844 119.554688 C 59.386719 119.675781 59.023438 119.511719 58.902344 119.183594 C 58.792969 118.902344 58.90625 118.59375 59.152344 118.4375 Z M 59.152344 118.4375 " fill-opacity="1" fill-rule="nonzero"/><path fill="#371a45" d="M 66.824219 131.898438 C 66.5625 131.925781 66.359375 131.929688 66.136719 131.929688 C 65.917969 131.925781 65.695312 131.910156 65.476562 131.882812 C 65.039062 131.835938 64.605469 131.746094 64.179688 131.621094 C 63.328125 131.371094 62.507812 130.949219 61.8125 130.359375 C 61.460938 130.070312 61.152344 129.730469 60.894531 129.363281 C 60.632812 128.996094 60.425781 128.59375 60.269531 128.183594 C 59.972656 127.351562 59.882812 126.488281 59.964844 125.667969 C 59.96875 125.609375 60.019531 125.566406 60.078125 125.570312 C 60.121094 125.578125 60.15625 125.609375 60.167969 125.652344 C 60.359375 126.4375 60.632812 127.179688 61.035156 127.8125 C 61.234375 128.128906 61.476562 128.40625 61.730469 128.664062 C 61.988281 128.921875 62.285156 129.128906 62.585938 129.328125 C 63.195312 129.707031 63.886719 129.949219 64.59375 130.128906 C 64.949219 130.214844 65.3125 130.285156 65.679688 130.339844 C 65.863281 130.367188 66.046875 130.394531 66.230469 130.414062 L 66.761719 130.464844 L 66.828125 130.472656 C 67.222656 130.511719 67.507812 130.863281 67.464844 131.257812 C 67.425781 131.601562 67.15625 131.863281 66.824219 131.898438 Z M 66.824219 131.898438 " fill-opacity="1" fill-rule="nonzero"/><path fill="#371a45" d="M 72.726562 129.613281 C 70.441406 129.613281 68.488281 128.9375 66.898438 127.601562 C 63.011719 124.324219 62.722656 118.277344 62.714844 118.023438 C 62.699219 117.726562 62.933594 117.476562 63.230469 117.464844 C 63.523438 117.453125 63.777344 117.683594 63.789062 117.976562 C 63.796875 118.035156 64.074219 123.816406 67.597656 126.785156 C 69.3125 128.222656 71.539062 128.78125 74.210938 128.441406 C 74.507812 128.402344 74.777344 128.613281 74.8125 128.90625 C 74.847656 129.203125 74.640625 129.46875 74.34375 129.503906 C 73.792969 129.582031 73.25 129.613281 72.726562 129.613281 Z M 72.726562 129.613281 " fill-opacity="1" fill-rule="nonzero"/><path fill="#ffffff" d="M 108.625 95.976562 L 101.257812 109.941406 L 91.878906 112.453125 L 86.917969 113.78125 C 86.917969 113.78125 82.78125 112.941406 81.78125 112.726562 C 80.421875 112.429688 80.683594 110.808594 81.132812 109.855469 C 81.902344 108.230469 82.460938 106.636719 82.882812 105.136719 C 83.566406 102.714844 83.914062 100.503906 84.269531 98.691406 C 84.558594 97.195312 85.824219 96.089844 87.34375 96 C 96.4375 95.472656 105.214844 93.964844 105.214844 93.964844 Z M 108.625 95.976562 " fill-opacity="1" fill-rule="nonzero"/><path fill="#371a45" d="M 86.917969 114.492188 C 86.871094 114.492188 86.824219 114.488281 86.773438 114.476562 C 86.605469 114.441406 82.625 113.632812 81.628906 113.417969 C 81.011719 113.285156 80.542969 112.9375 80.285156 112.410156 C 79.847656 111.53125 80.105469 110.355469 80.488281 109.546875 C 82.1875 105.949219 82.824219 102.542969 83.332031 99.804688 C 83.410156 99.363281 83.492188 98.949219 83.566406 98.546875 C 83.925781 96.730469 85.464844 95.386719 87.308594 95.28125 C 96.253906 94.757812 105.015625 93.273438 105.105469 93.253906 C 105.273438 93.226562 105.445312 93.257812 105.59375 93.34375 L 108.992188 95.355469 C 109.320312 95.550781 109.441406 95.96875 109.261719 96.304688 L 101.898438 110.265625 C 101.800781 110.441406 101.640625 110.574219 101.449219 110.625 L 87.113281 114.464844 C 87.042969 114.488281 86.980469 114.492188 86.917969 114.492188 Z M 105.085938 94.710938 C 103.550781 94.960938 95.550781 96.234375 87.394531 96.710938 C 86.203125 96.78125 85.210938 97.648438 84.976562 98.824219 C 84.898438 99.222656 84.820312 99.632812 84.742188 100.066406 C 84.21875 102.882812 83.5625 106.390625 81.789062 110.160156 C 81.5 110.769531 81.410156 111.449219 81.578125 111.777344 C 81.621094 111.871094 81.703125 111.976562 81.941406 112.023438 C 82.808594 112.210938 86.117188 112.886719 86.902344 113.042969 L 100.769531 109.328125 L 107.675781 96.242188 Z M 105.085938 94.710938 " fill-opacity="1" fill-rule="nonzero"/><path fill="#371a45" d="M 89.191406 100.804688 C 89.039062 100.804688 88.882812 100.753906 88.753906 100.65625 L 84.730469 97.554688 C 84.414062 97.3125 84.359375 96.867188 84.601562 96.554688 C 84.84375 96.242188 85.296875 96.183594 85.605469 96.425781 L 89.628906 99.527344 C 89.941406 99.765625 90 100.214844 89.757812 100.527344 C 89.621094 100.707031 89.410156 100.804688 89.191406 100.804688 Z M 89.191406 100.804688 " fill-opacity="1" fill-rule="nonzero"/><path fill="#371a45" d="M 91.878906 112.449219 L 86.917969 113.777344 C 86.917969 113.777344 82.78125 112.9375 81.78125 112.722656 C 80.746094 112.496094 80.652344 111.496094 80.863281 110.613281 C 80.929688 110.339844 81.023438 110.074219 81.132812 109.851562 C 81.902344 108.222656 82.460938 106.632812 82.882812 105.132812 C 83.191406 105.734375 84.078125 106.945312 86.117188 106.6875 C 86.84375 106.597656 87.710938 106.316406 88.753906 105.757812 C 91.800781 104.125 92.09375 108.726562 91.878906 112.449219 Z M 91.878906 112.449219 " fill-opacity="0.3" fill-rule="nonzero"/><path fill="#371a45" d="M 86.121094 106.691406 C 84.082031 106.949219 83.195312 105.738281 82.886719 105.136719 C 82.460938 106.636719 81.902344 108.222656 81.136719 109.855469 C 81.027344 110.078125 80.933594 110.34375 80.867188 110.617188 C 75.160156 111.714844 65.769531 110.753906 58.375 104.5 C 58.335938 104.464844 58.296875 104.433594 58.261719 104.398438 C 58.394531 102.910156 58.695312 101.28125 59.246094 99.542969 C 60.027344 99.222656 60.953125 99.265625 61.730469 99.761719 C 72.847656 106.835938 83.710938 103.625 83.710938 103.625 C 83.710938 103.625 86.097656 104.390625 86.121094 106.691406 Z M 86.121094 106.691406 " fill-opacity="0.3" fill-rule="nonzero"/><path fill="#ffffff" d="M 57.601562 99.507812 C 57.1875 100.578125 57.5 101.789062 58.375 102.53125 C 69.421875 111.875 84.921875 109.410156 85.949219 105.894531 C 86.890625 102.675781 83.710938 101.652344 83.710938 101.652344 C 83.710938 101.652344 72.847656 104.863281 61.730469 97.792969 C 60.292969 96.875 58.371094 97.503906 57.757812 99.097656 Z M 57.601562 99.507812 " fill-opacity="1" fill-rule="nonzero"/><path fill="#371a45" d="M 85.949219 105.894531 C 84.921875 109.410156 69.421875 111.875 58.375 102.53125 C 57.5 101.789062 57.1875 100.578125 57.601562 99.507812 L 57.757812 99.097656 C 57.980469 98.519531 58.375 98.070312 58.855469 97.773438 C 58.914062 98.472656 59.242188 99.132812 59.804688 99.605469 C 69.261719 107.617188 82 106.949219 86.097656 104.386719 C 86.152344 104.824219 86.117188 105.328125 85.949219 105.894531 Z M 85.949219 105.894531 " fill-opacity="0.3" fill-rule="nonzero"/><path fill="#371a45" d="M 76.519531 109.738281 C 70.964844 109.738281 63.84375 108.09375 57.914062 103.074219 C 56.804688 102.136719 56.410156 100.597656 56.933594 99.25 L 57.089844 98.835938 C 57.457031 97.875 58.234375 97.144531 59.210938 96.820312 C 60.1875 96.5 61.246094 96.632812 62.117188 97.1875 C 72.808594 103.992188 83.402344 100.996094 83.503906 100.96875 C 83.644531 100.929688 83.792969 100.929688 83.925781 100.972656 C 85.253906 101.402344 87.535156 103.027344 86.636719 106.097656 C 86.289062 107.273438 84.875 108.28125 82.640625 108.953125 C 81.042969 109.429688 78.929688 109.738281 76.519531 109.738281 Z M 60.28125 98.082031 C 60.078125 98.082031 59.867188 98.113281 59.660156 98.179688 C 59.089844 98.367188 58.640625 98.792969 58.425781 99.347656 L 58.269531 99.757812 C 57.96875 100.539062 58.195312 101.433594 58.839844 101.980469 C 66.902344 108.804688 77.242188 109.066406 82.226562 107.578125 C 84.226562 106.976562 85.101562 106.207031 85.253906 105.691406 C 85.882812 103.554688 84.269531 102.652344 83.667969 102.398438 C 81.949219 102.847656 71.820312 105.058594 61.335938 98.390625 C 61.023438 98.191406 60.65625 98.082031 60.28125 98.082031 Z M 57.601562 99.507812 Z M 57.601562 99.507812 " fill-opacity="1" fill-rule="nonzero"/><path fill="#ffffff" d="M 78.804688 101.296875 C 78.65625 102.910156 78.101562 104.242188 77.597656 104.933594 C 76.640625 106.253906 67.144531 113.550781 59.476562 114.011719 C 56.042969 114.214844 52.980469 113.050781 51.199219 109.378906 C 51.191406 109.359375 51.179688 109.335938 51.171875 109.320312 C 47.050781 100.640625 59.867188 90.597656 67.085938 85.8125 C 68.101562 85.136719 69.007812 84.570312 69.738281 84.121094 C 70.882812 83.425781 71.605469 83.023438 71.660156 82.992188 L 68.785156 87.582031 L 63.183594 96.523438 L 63.121094 96.621094 L 62.539062 97.554688 C 63.085938 96.804688 63.636719 96.203125 64.179688 95.734375 C 64.515625 95.445312 64.855469 95.199219 65.179688 94.996094 C 65.199219 94.984375 65.207031 94.980469 65.207031 94.980469 C 66.597656 94.125 67.867188 94.011719 68.738281 94.078125 C 69.21875 94.117188 69.582031 94.210938 69.769531 94.273438 C 69.875 94.308594 69.929688 94.332031 69.929688 94.332031 L 72.726562 93.371094 C 73.152344 93.222656 73.597656 93.164062 74.035156 93.199219 L 74.046875 93.199219 C 74.785156 93.253906 75.5 93.558594 76.050781 94.09375 C 78.464844 96.425781 79 99.121094 78.804688 101.296875 Z M 78.804688 101.296875 " fill-opacity="1" fill-rule="nonzero"/><path fill="#371a45" d="M 60.636719 113.898438 C 60.636719 113.898438 54.457031 115.683594 51.203125 109.378906 C 51.195312 109.359375 51.1875 109.335938 51.175781 109.320312 C 50.296875 107.46875 50.191406 105.554688 50.632812 103.644531 C 50.691406 103.789062 50.761719 103.9375 50.828125 104.085938 C 50.835938 104.101562 50.84375 104.125 50.855469 104.144531 C 52.023438 107.703125 55.972656 108.515625 55.972656 108.515625 C 55.972656 108.515625 55.035156 110.21875 57.191406 112.394531 C 58.964844 114.179688 60.636719 113.898438 60.636719 113.898438 Z M 60.636719 113.898438 " fill-opacity="0.3" fill-rule="nonzero"/><path fill="#371a45" d="M 71.664062 91.726562 C 70.894531 91.117188 70.019531 90.585938 69.050781 90.460938 C 68.125 90.339844 67.195312 90.597656 66.3125 90.90625 C 61.839844 92.496094 57.054688 95.945312 55.5 100.164062 C 56.273438 100.5 57.15625 99.851562 57.972656 99.65625 C 59.339844 99.324219 60.734375 98.984375 61.921875 98.230469 C 62.578125 97.8125 63.152344 97.277344 63.777344 96.808594 C 64.546875 96.230469 65.386719 95.75 66.28125 95.378906 C 67.019531 95.070312 67.804688 94.839844 68.609375 94.863281 C 70.019531 94.910156 72.242188 96.460938 73.457031 95.191406 C 74.652344 93.953125 72.589844 92.464844 71.664062 91.726562 Z M 71.664062 91.726562 " fill-opacity="0.3" fill-rule="nonzero"/><path fill="#ffffff" d="M 61.300781 113.984375 C 68.574219 112.820312 76.695312 106.660156 77.597656 104.933594 C 81.074219 98.296875 77.132812 91.695312 72.117188 93.582031 L 69.9375 94.332031 C 69.9375 94.332031 68.535156 89.355469 62.542969 97.550781 Z M 61.300781 113.984375 " fill-opacity="1" fill-rule="nonzero"/><path fill="#f92323" d="M 60.84375 98.183594 C 60.84375 98.183594 59.335938 98.453125 57.898438 101.054688 C 57.898438 101.054688 51.839844 108.160156 59.476562 114.011719 C 59.476562 114.011719 75.078125 111.320312 78.605469 102.292969 C 78.605469 102.292969 81.015625 93.980469 73.277344 93.175781 L 70.027344 94.382812 C 70.027344 94.382812 69.398438 91.9375 66.996094 92.929688 C 66.996094 92.929688 64.027344 95.167969 62.542969 97.792969 Z M 60.84375 98.183594 " fill-opacity="1" fill-rule="nonzero"/><path fill="#ffffff" d="M 70.363281 94.945312 L 73.328125 94.632812 C 74.242188 94.539062 75.144531 94.914062 75.71875 95.632812 C 77.03125 97.28125 78.804688 100.675781 76.640625 105.449219 C 76.640625 105.449219 79.734375 102.417969 79.140625 97.957031 C 79.140625 97.957031 77.699219 91.921875 72.628906 93.269531 L 70.699219 94.390625 Z M 70.363281 94.945312 " fill-opacity="0.6" fill-rule="nonzero"/><path fill="#ffffff" d="M 58.476562 100.085938 C 58.476562 100.085938 62.132812 99.59375 63.183594 98.742188 C 63.183594 98.742188 66.4375 94.042969 69.128906 94.042969 L 68.765625 92.933594 L 67.109375 92.925781 L 64.605469 95.449219 L 62.625 97.835938 L 59.222656 99.015625 Z M 58.476562 100.085938 " fill-opacity="0.6" fill-rule="nonzero"/><path fill="#371a45" d="M 59.023438 114.894531 C 58.957031 114.894531 58.886719 114.894531 58.820312 114.894531 C 54.980469 114.835938 52.199219 113.082031 50.558594 109.691406 C 44.578125 97.335938 69.753906 82.566406 70.828125 81.945312 C 71.167969 81.75 71.609375 81.867188 71.8125 82.207031 C 72.011719 82.542969 71.894531 82.984375 71.550781 83.183594 C 71.300781 83.332031 46.449219 97.902344 51.855469 109.074219 C 53.242188 111.9375 55.59375 113.417969 58.847656 113.472656 C 58.90625 113.472656 58.964844 113.472656 59.023438 113.472656 C 66.371094 113.472656 76.046875 106.378906 76.964844 104.613281 C 78.992188 100.738281 78.234375 97.078125 76.667969 95.320312 C 75.519531 94.027344 73.996094 93.652344 72.375 94.261719 L 70.175781 95.019531 C 69.984375 95.082031 69.785156 95.070312 69.609375 94.980469 C 69.433594 94.886719 69.304688 94.730469 69.25 94.539062 C 69.25 94.53125 68.988281 93.691406 68.324219 93.582031 C 67.800781 93.492188 66.234375 93.738281 63.125 97.988281 C 62.894531 98.304688 62.445312 98.378906 62.121094 98.144531 C 61.804688 97.914062 61.730469 97.464844 61.964844 97.144531 C 64.648438 93.484375 66.808594 91.855469 68.585938 92.171875 C 69.433594 92.324219 70 92.90625 70.328125 93.457031 L 71.886719 92.917969 C 74.019531 92.113281 76.210938 92.65625 77.742188 94.375 C 79.6875 96.5625 80.59375 100.777344 78.238281 105.277344 C 77.167969 107.308594 67.175781 114.894531 59.023438 114.894531 Z M 59.023438 114.894531 " fill-opacity="1" fill-rule="nonzero"/><path fill="#371a45" d="M 62.792969 98.226562 C 62.207031 98.519531 61.597656 98.75 60.984375 98.960938 C 60.367188 99.175781 59.734375 99.347656 59.101562 99.523438 C 58.472656 99.691406 57.832031 99.851562 57.191406 99.996094 C 56.550781 100.136719 55.90625 100.273438 55.246094 100.371094 C 55.1875 100.378906 55.132812 100.339844 55.125 100.28125 C 55.121094 100.242188 55.136719 100.195312 55.171875 100.179688 C 55.738281 99.824219 56.3125 99.507812 56.894531 99.195312 C 57.480469 98.886719 58.0625 98.59375 58.65625 98.308594 C 59.246094 98.027344 59.835938 97.746094 60.445312 97.503906 C 61.050781 97.265625 61.664062 97.035156 62.300781 96.878906 C 62.6875 96.785156 63.082031 97.019531 63.175781 97.40625 C 63.246094 97.742188 63.085938 98.078125 62.792969 98.226562 Z M 62.792969 98.226562 " fill-opacity="1" fill-rule="nonzero"/><path fill="#371a45" d="M 59.390625 114.554688 C 59.289062 114.554688 59.183594 114.527344 59.09375 114.464844 C 56.792969 112.9375 55.480469 110.976562 55.191406 108.648438 C 54.558594 103.523438 59.117188 98.460938 59.3125 98.246094 C 59.515625 98.027344 59.851562 98.011719 60.070312 98.210938 C 60.292969 98.414062 60.308594 98.75 60.109375 98.96875 C 60.0625 99.015625 55.683594 103.882812 56.257812 108.519531 C 56.507812 110.523438 57.664062 112.21875 59.691406 113.570312 C 59.9375 113.734375 60.003906 114.066406 59.839844 114.3125 C 59.734375 114.46875 59.566406 114.554688 59.390625 114.554688 Z M 59.390625 114.554688 " fill-opacity="1" fill-rule="nonzero"/><path fill="#371a45" d="M 104.933594 92.21875 C 104.628906 92.386719 104.324219 92.554688 104.007812 92.714844 C 102.554688 93.464844 101.058594 94.085938 99.523438 94.585938 C 98.96875 94.765625 98.402344 94.929688 97.835938 95.082031 C 87.8125 97.726562 76.71875 95.203125 68.785156 87.582031 C 68.527344 87.335938 68.277344 87.085938 68.03125 86.832031 C 67.898438 86.699219 67.769531 86.5625 67.640625 86.425781 C 67.449219 86.222656 67.265625 86.023438 67.082031 85.816406 C 68.097656 85.140625 69.003906 84.574219 69.734375 84.128906 C 79.6875 73.292969 84.371094 69.5625 91.894531 70.367188 C 99.246094 71.152344 107.636719 78.71875 104.933594 92.21875 Z M 104.933594 92.21875 " fill-opacity="0.3" fill-rule="nonzero"/><path fill="#ffffff" d="M 121.746094 65.496094 C 121.082031 70.546875 119.148438 75.457031 115.953125 79.710938 C 115.304688 80.578125 114.605469 81.417969 113.851562 82.226562 C 113.488281 82.621094 113.101562 83.007812 112.710938 83.390625 C 111.523438 84.539062 110.265625 85.566406 108.957031 86.484375 C 107.828125 87.273438 106.652344 87.980469 105.449219 88.597656 C 103.996094 89.347656 102.492188 89.96875 100.964844 90.46875 C 100.402344 90.648438 99.84375 90.8125 99.277344 90.964844 C 88.929688 93.691406 77.445312 90.917969 69.46875 82.710938 C 57.710938 70.625 58.023438 51.332031 70.148438 39.621094 C 72.484375 37.367188 75.089844 35.550781 77.859375 34.1875 C 78.179688 34.027344 78.507812 33.871094 78.839844 33.730469 C 79.722656 33.332031 80.617188 32.976562 81.527344 32.667969 C 83.625 31.953125 85.789062 31.476562 87.96875 31.230469 C 90.148438 30.984375 92.347656 30.972656 94.523438 31.191406 C 95.214844 31.261719 95.902344 31.351562 96.59375 31.46875 C 97.625 31.644531 98.648438 31.871094 99.664062 32.15625 C 104.71875 33.554688 109.476562 36.273438 113.394531 40.300781 C 120.148438 47.253906 122.917969 56.589844 121.746094 65.496094 Z M 121.746094 65.496094 " fill-opacity="1" fill-rule="nonzero"/><g clip-path="url(#a8b9dc72c6)"><path fill="#371a45" d="M 91.457031 92.050781 C 83.257812 92.050781 75.261719 88.777344 69.414062 82.765625 C 57.65625 70.667969 57.960938 51.296875 70.09375 39.570312 C 72.398438 37.347656 74.996094 35.515625 77.820312 34.125 C 78.132812 33.96875 78.453125 33.816406 78.804688 33.660156 C 79.683594 33.265625 80.589844 32.90625 81.496094 32.597656 C 83.578125 31.886719 85.753906 31.40625 87.949219 31.160156 C 90.128906 30.914062 92.34375 30.898438 94.523438 31.117188 C 95.222656 31.191406 95.921875 31.285156 96.597656 31.398438 C 97.652344 31.578125 98.6875 31.8125 99.675781 32.089844 C 104.894531 33.53125 109.652344 36.355469 113.4375 40.25 C 119.988281 46.988281 123.042969 56.191406 121.816406 65.503906 L 121.746094 65.496094 L 121.816406 65.503906 C 121.140625 70.667969 119.128906 75.597656 116.011719 79.753906 C 115.347656 80.636719 114.640625 81.484375 113.898438 82.277344 C 113.558594 82.644531 113.1875 83.023438 112.761719 83.441406 C 111.585938 84.574219 110.320312 85.621094 108.996094 86.539062 C 107.890625 87.320312 106.707031 88.03125 105.480469 88.664062 C 104.050781 89.402344 102.539062 90.035156 100.984375 90.542969 C 100.429688 90.71875 99.859375 90.890625 99.296875 91.039062 C 96.703125 91.722656 94.070312 92.050781 91.457031 92.050781 Z M 91.421875 31.109375 C 90.265625 31.109375 89.113281 31.175781 87.964844 31.304688 C 85.773438 31.550781 83.613281 32.035156 81.539062 32.742188 C 80.640625 33.050781 79.738281 33.402344 78.863281 33.800781 C 78.511719 33.957031 78.191406 34.105469 77.882812 34.261719 C 75.070312 35.644531 72.484375 37.464844 70.191406 39.679688 C 58.113281 51.34375 57.8125 70.628906 69.519531 82.664062 C 75.335938 88.644531 83.292969 91.910156 91.457031 91.910156 C 94.058594 91.910156 96.679688 91.578125 99.257812 90.898438 C 99.820312 90.75 100.390625 90.582031 100.941406 90.402344 C 102.484375 89.898438 103.988281 89.273438 105.414062 88.535156 C 106.632812 87.910156 107.808594 87.199219 108.914062 86.425781 C 110.230469 85.503906 111.492188 84.46875 112.65625 83.339844 C 113.082031 82.925781 113.457031 82.542969 113.792969 82.179688 C 114.527344 81.386719 115.238281 80.542969 115.890625 79.667969 C 118.996094 75.527344 120.992188 70.625 121.667969 65.484375 C 122.890625 56.210938 119.847656 47.054688 113.332031 40.347656 C 109.5625 36.46875 104.824219 33.660156 99.632812 32.222656 C 98.648438 31.945312 97.617188 31.71875 96.566406 31.539062 C 95.894531 31.421875 95.199219 31.328125 94.5 31.261719 C 93.484375 31.164062 92.453125 31.109375 91.421875 31.109375 Z M 91.421875 31.109375 " fill-opacity="1" fill-rule="nonzero"/></g><path fill="#371a45" d="M 69.464844 82.714844 C 77.441406 90.921875 88.925781 93.695312 99.273438 90.96875 C 99.835938 90.824219 100.398438 90.65625 100.960938 90.472656 C 102.488281 89.972656 103.992188 89.351562 105.445312 88.601562 C 106.648438 87.980469 107.820312 87.277344 108.953125 86.488281 C 110.265625 85.570312 111.523438 84.542969 112.710938 83.394531 C 113.101562 83.007812 113.484375 82.625 113.851562 82.230469 C 114.605469 81.421875 115.304688 80.582031 115.953125 79.714844 C 119.148438 75.457031 121.082031 70.550781 121.746094 65.5 C 122.109375 62.726562 122.09375 59.910156 121.691406 57.132812 C 120.949219 61.9375 119.046875 66.589844 116 70.65625 C 115.347656 71.523438 114.648438 72.363281 113.894531 73.171875 C 113.53125 73.566406 113.148438 73.949219 112.757812 74.332031 C 111.566406 75.480469 110.3125 76.511719 109 77.425781 C 107.871094 78.21875 106.695312 78.917969 105.496094 79.539062 C 104.039062 80.289062 102.539062 80.914062 101.007812 81.414062 C 100.449219 81.59375 99.886719 81.757812 99.320312 81.910156 C 88.972656 84.636719 77.496094 81.867188 69.515625 73.652344 C 64.859375 68.867188 62.09375 62.949219 61.210938 56.820312 C 59.789062 65.9375 62.527344 75.582031 69.464844 82.714844 Z M 69.464844 82.714844 " fill-opacity="0.35" fill-rule="nonzero"/><g clip-path="url(#03933932cf)"><path fill="#371a45" d="M 91.457031 92.535156 C 83.128906 92.535156 75.003906 89.210938 69.066406 83.097656 C 57.117188 70.816406 57.425781 51.132812 69.757812 39.226562 C 72.097656 36.96875 74.742188 35.109375 77.605469 33.699219 C 77.917969 33.542969 78.25 33.382812 78.605469 33.222656 C 79.5 32.820312 80.417969 32.460938 81.339844 32.144531 C 83.457031 31.425781 85.664062 30.933594 87.898438 30.679688 C 90.109375 30.429688 92.355469 30.417969 94.570312 30.640625 C 95.285156 30.710938 95.992188 30.804688 96.679688 30.925781 C 97.75 31.109375 98.800781 31.347656 99.804688 31.625 C 105.105469 33.089844 109.9375 35.960938 113.785156 39.914062 C 120.4375 46.753906 123.539062 56.105469 122.296875 65.566406 L 121.746094 65.496094 L 122.296875 65.566406 C 121.605469 70.8125 119.570312 75.816406 116.398438 80.042969 C 115.726562 80.9375 115.003906 81.796875 114.253906 82.601562 C 113.910156 82.972656 113.53125 83.363281 113.097656 83.789062 C 111.902344 84.941406 110.617188 86 109.269531 86.9375 C 108.144531 87.726562 106.941406 88.453125 105.699219 89.09375 C 104.246094 89.84375 102.707031 90.488281 101.132812 91 C 100.570312 91.183594 99.988281 91.355469 99.417969 91.507812 C 96.789062 92.199219 94.109375 92.535156 91.457031 92.535156 Z M 91.421875 31.59375 C 90.289062 31.59375 89.148438 31.65625 88.023438 31.785156 C 85.871094 32.027344 83.742188 32.5 81.703125 33.195312 C 80.8125 33.5 79.925781 33.847656 79.066406 34.238281 C 78.71875 34.390625 78.40625 34.539062 78.105469 34.691406 C 75.332031 36.054688 72.785156 37.851562 70.527344 40.023438 C 58.640625 51.503906 58.34375 70.484375 69.863281 82.332031 C 75.589844 88.21875 83.425781 91.425781 91.453125 91.425781 C 94.015625 91.425781 96.589844 91.101562 99.128906 90.433594 C 99.679688 90.285156 100.242188 90.121094 100.785156 89.945312 C 102.300781 89.449219 103.78125 88.832031 105.183594 88.109375 C 106.382812 87.492188 107.542969 86.792969 108.628906 86.03125 C 109.929688 85.128906 111.167969 84.105469 112.316406 82.996094 C 112.738281 82.585938 113.101562 82.214844 113.433594 81.855469 C 114.160156 81.078125 114.855469 80.246094 115.5 79.382812 C 118.554688 75.3125 120.519531 70.484375 121.183594 65.429688 C 122.386719 56.304688 119.394531 47.289062 112.976562 40.691406 C 109.277344 36.871094 104.613281 34.109375 99.503906 32.691406 C 98.535156 32.417969 97.523438 32.195312 96.492188 32.015625 C 95.832031 31.90625 95.144531 31.8125 94.460938 31.746094 C 93.449219 31.640625 92.4375 31.59375 91.421875 31.59375 Z M 91.421875 31.59375 " fill-opacity="1" fill-rule="nonzero"/><path fill="#371a45" d="M 91.457031 92.695312 C 83.082031 92.695312 74.917969 89.351562 68.949219 83.210938 C 56.941406 70.863281 57.25 51.082031 69.644531 39.109375 C 71.996094 36.839844 74.652344 34.972656 77.539062 33.550781 C 77.851562 33.394531 78.183594 33.238281 78.542969 33.078125 C 79.4375 32.675781 80.367188 32.308594 81.289062 31.988281 C 83.414062 31.265625 85.636719 30.769531 87.878906 30.519531 C 90.105469 30.269531 92.359375 30.25 94.589844 30.480469 C 95.308594 30.550781 96.019531 30.648438 96.707031 30.765625 C 97.785156 30.949219 98.84375 31.183594 99.851562 31.46875 C 105.175781 32.941406 110.035156 35.824219 113.90625 39.804688 C 120.589844 46.683594 123.710938 56.078125 122.457031 65.589844 L 121.746094 65.496094 L 122.457031 65.589844 C 121.765625 70.863281 119.714844 75.894531 116.535156 80.140625 C 115.855469 81.039062 115.132812 81.90625 114.375 82.714844 C 114.03125 83.085938 113.648438 83.472656 113.214844 83.902344 C 112.011719 85.0625 110.71875 86.128906 109.367188 87.066406 C 108.234375 87.859375 107.027344 88.589844 105.777344 89.230469 C 104.3125 89.988281 102.765625 90.632812 101.1875 91.148438 C 100.617188 91.332031 100.039062 91.503906 99.464844 91.660156 C 96.8125 92.355469 94.128906 92.695312 91.457031 92.695312 Z M 91.421875 31.753906 C 90.292969 31.753906 89.160156 31.816406 88.039062 31.945312 C 85.894531 32.1875 83.785156 32.660156 81.75 33.347656 C 80.867188 33.648438 79.988281 33.996094 79.132812 34.386719 C 78.785156 34.539062 78.476562 34.683594 78.179688 34.832031 C 75.421875 36.191406 72.890625 37.976562 70.644531 40.140625 C 58.820312 51.558594 58.523438 70.4375 69.984375 82.21875 C 75.679688 88.074219 83.46875 91.265625 91.464844 91.265625 C 94.011719 91.265625 96.570312 90.945312 99.097656 90.277344 C 99.648438 90.128906 100.199219 89.96875 100.742188 89.796875 C 102.25 89.304688 103.726562 88.6875 105.121094 87.96875 C 106.316406 87.351562 107.46875 86.65625 108.542969 85.902344 C 109.835938 85 111.070312 83.984375 112.214844 82.878906 C 112.628906 82.472656 112.996094 82.101562 113.324219 81.746094 C 114.046875 80.972656 114.738281 80.144531 115.386719 79.285156 C 118.421875 75.238281 120.378906 70.4375 121.042969 65.40625 C 122.234375 56.332031 119.261719 47.367188 112.878906 40.804688 C 109.179688 37.003906 104.542969 34.257812 99.460938 32.847656 C 98.496094 32.578125 97.492188 32.351562 96.460938 32.179688 C 95.804688 32.066406 95.125 31.972656 94.4375 31.90625 C 93.441406 31.800781 92.433594 31.753906 91.421875 31.753906 Z M 91.421875 31.753906 " fill-opacity="1" fill-rule="nonzero"/></g><path fill="#371a45" d="M 119.742188 73.046875 C 107.492188 91.082031 81.539062 91.472656 72.605469 71.820312 C 66.527344 58.453125 74.96875 42.203125 88.222656 37.207031 C 97.871094 33.574219 108.890625 34.226562 118.644531 47.609375 C 118.644531 47.609375 122.046875 54.195312 121.9375 59.488281 C 121.832031 64.78125 120.824219 69.914062 120.824219 69.914062 Z M 119.742188 73.046875 " fill-opacity="1" fill-rule="nonzero"/><path fill="#220f2d" d="M 72.605469 71.820312 C 81.539062 91.472656 107.492188 91.082031 119.742188 73.046875 L 119.960938 72.410156 C 102.8125 82.714844 80.246094 78.742188 70.84375 59.042969 C 70.238281 63.296875 70.730469 67.695312 72.605469 71.820312 Z M 72.605469 71.820312 " fill-opacity="1" fill-rule="nonzero"/><path fill="#371a45" d="M 95.09375 90.425781 C 91.699219 90.425781 88.355469 89.867188 85.21875 88.738281 C 77.992188 86.136719 72.390625 80.851562 69.019531 73.445312 C 65.921875 66.628906 65.921875 58.761719 69.015625 51.296875 C 72.390625 43.164062 79.101562 36.539062 86.976562 33.574219 C 91.398438 31.90625 95.679688 31.191406 99.703125 31.449219 C 99.753906 31.453125 99.800781 31.457031 99.851562 31.472656 C 105.179688 32.945312 110.039062 35.828125 113.90625 39.808594 C 120.589844 46.683594 123.707031 56.078125 122.457031 65.589844 L 121.746094 65.496094 L 122.457031 65.589844 C 121.765625 70.863281 119.714844 75.894531 116.535156 80.140625 C 115.855469 81.039062 115.132812 81.90625 114.375 82.714844 C 114.03125 83.085938 113.648438 83.472656 113.214844 83.902344 C 112.011719 85.0625 110.71875 86.128906 109.367188 87.066406 C 109.332031 87.089844 109.300781 87.109375 109.265625 87.125 C 104.75 89.316406 99.875 90.425781 95.09375 90.425781 Z M 98.09375 32.824219 C 94.71875 32.824219 91.15625 33.523438 87.484375 34.910156 C 79.976562 37.738281 73.566406 44.066406 70.34375 51.839844 C 67.402344 58.9375 67.394531 66.402344 70.328125 72.855469 C 73.535156 79.902344 78.847656 84.933594 85.707031 87.394531 C 92.886719 89.976562 101.222656 89.417969 108.589844 85.867188 C 109.863281 84.976562 111.082031 83.972656 112.210938 82.878906 C 112.625 82.472656 112.988281 82.101562 113.320312 81.746094 C 114.042969 80.972656 114.734375 80.144531 115.378906 79.285156 C 118.417969 75.238281 120.375 70.4375 121.035156 65.40625 C 122.230469 56.332031 119.257812 47.367188 112.875 40.804688 C 109.199219 37.027344 104.59375 34.28125 99.539062 32.871094 C 99.058594 32.839844 98.578125 32.824219 98.09375 32.824219 Z M 108.953125 86.484375 Z M 108.953125 86.484375 " fill-opacity="1" fill-rule="nonzero"/><path fill="#371a45" d="M 95.265625 87.28125 C 94.496094 87.28125 93.726562 87.25 92.957031 87.183594 C 83.605469 86.394531 75.945312 80.898438 71.953125 72.117188 C 69.1875 66.03125 69.1875 59.011719 71.949219 52.347656 C 74.960938 45.097656 80.949219 39.183594 87.972656 36.535156 C 100.199219 31.925781 110.71875 35.511719 119.230469 47.1875 C 119.25 47.21875 119.269531 47.25 119.289062 47.28125 C 119.429688 47.558594 122.769531 54.09375 122.65625 59.507812 C 122.546875 64.800781 121.539062 69.996094 121.53125 70.050781 C 121.527344 70.082031 121.515625 70.117188 121.503906 70.148438 L 120.417969 73.28125 C 120.394531 73.339844 120.367188 73.398438 120.332031 73.449219 C 114.4375 82.125 104.996094 87.28125 95.265625 87.28125 Z M 97.820312 36.042969 C 94.835938 36.042969 91.722656 36.652344 88.480469 37.875 C 81.820312 40.390625 76.136719 46.003906 73.273438 52.894531 C 70.664062 59.191406 70.660156 65.808594 73.253906 71.527344 C 77.03125 79.828125 84.253906 85.015625 93.074219 85.761719 C 103.050781 86.609375 113.015625 81.613281 119.089844 72.722656 L 120.132812 69.730469 C 120.230469 69.199219 121.117188 64.375 121.222656 59.476562 C 121.320312 54.65625 118.332031 48.578125 118.03125 47.984375 C 112.222656 40.035156 105.449219 36.042969 97.820312 36.042969 Z M 119.742188 73.046875 Z M 119.742188 73.046875 " fill-opacity="1" fill-rule="nonzero"/><path fill="#ffffff" d="M 70.4375 83.761719 C 66.1875 84.878906 61.269531 81.140625 59.457031 75.40625 C 59.453125 75.394531 59.449219 75.378906 59.445312 75.363281 C 57.660156 69.640625 59.636719 64.109375 63.875 62.992188 C 68.128906 61.875 73.042969 65.613281 74.855469 71.347656 C 74.972656 71.710938 75.070312 72.070312 75.152344 72.429688 C 76.414062 77.765625 74.425781 82.710938 70.4375 83.761719 Z M 70.4375 83.761719 " fill-opacity="1" fill-rule="nonzero"/><path fill="#371a45" d="M 75.15625 72.433594 C 76.414062 77.769531 74.421875 82.714844 70.4375 83.761719 C 66.1875 84.878906 61.269531 81.140625 59.457031 75.40625 C 59.453125 75.394531 59.449219 75.378906 59.445312 75.363281 L 70.539062 72.800781 C 73.292969 75.316406 74.613281 73.652344 75.15625 72.433594 Z M 75.15625 72.433594 " fill-opacity="0.35" fill-rule="nonzero"/><path fill="#ffffff" d="M 89.191406 82.558594 C 89.191406 82.5625 89.191406 82.5625 89.191406 82.558594 C 89.199219 82.558594 89.199219 82.554688 89.191406 82.558594 Z M 89.191406 82.558594 " fill-opacity="1" fill-rule="nonzero"/><path fill="#371a45" d="M 68.917969 84.671875 C 64.769531 84.671875 60.46875 80.96875 58.777344 75.621094 C 57.660156 72.082031 57.863281 68.515625 59.351562 65.832031 C 60.359375 64.007812 61.863281 62.789062 63.699219 62.304688 C 68.3125 61.089844 73.628906 65.054688 75.546875 71.136719 C 76.664062 74.679688 76.457031 78.246094 74.972656 80.925781 C 73.964844 82.75 72.460938 83.96875 70.621094 84.453125 C 70.0625 84.601562 69.492188 84.671875 68.917969 84.671875 Z M 65.4375 63.511719 C 64.976562 63.511719 64.511719 63.570312 64.0625 63.6875 C 62.617188 64.066406 61.417969 65.050781 60.605469 66.519531 C 59.332031 68.828125 59.15625 72.066406 60.144531 75.1875 C 61.839844 80.554688 66.375 84.085938 70.253906 83.066406 C 71.703125 82.6875 72.898438 81.707031 73.714844 80.234375 C 74.988281 77.925781 75.160156 74.6875 74.175781 71.566406 C 72.675781 66.824219 68.960938 63.511719 65.4375 63.511719 Z M 65.4375 63.511719 " fill-opacity="1" fill-rule="nonzero"/><path fill="#ffffff" d="M 70.972656 72.546875 C 71.1875 73.074219 71.367188 73.609375 71.503906 74.15625 C 71.640625 74.703125 71.734375 75.25 71.785156 75.792969 C 71.832031 76.339844 71.839844 76.878906 71.804688 77.40625 C 71.765625 77.929688 71.683594 78.4375 71.5625 78.921875 C 71.4375 79.40625 71.273438 79.863281 71.066406 80.289062 C 70.859375 80.714844 70.617188 81.101562 70.335938 81.453125 C 70.058594 81.804688 69.746094 82.109375 69.402344 82.371094 C 69.0625 82.632812 68.691406 82.84375 68.300781 83.003906 C 67.90625 83.164062 67.496094 83.273438 67.070312 83.332031 C 66.640625 83.386719 66.203125 83.390625 65.757812 83.335938 C 65.3125 83.285156 64.867188 83.179688 64.417969 83.023438 C 63.96875 82.867188 63.53125 82.660156 63.097656 82.402344 C 62.667969 82.144531 62.253906 81.84375 61.855469 81.496094 C 61.453125 81.152344 61.078125 80.765625 60.726562 80.34375 C 60.375 79.917969 60.054688 79.464844 59.765625 78.984375 C 59.476562 78.5 59.222656 77.996094 59.003906 77.472656 C 58.789062 76.945312 58.609375 76.410156 58.472656 75.863281 C 58.335938 75.316406 58.242188 74.769531 58.191406 74.222656 C 58.140625 73.675781 58.136719 73.140625 58.171875 72.613281 C 58.210938 72.089844 58.292969 71.582031 58.414062 71.097656 C 58.539062 70.609375 58.703125 70.15625 58.910156 69.730469 C 59.117188 69.304688 59.359375 68.914062 59.636719 68.566406 C 59.917969 68.214844 60.230469 67.910156 60.574219 67.648438 C 60.914062 67.386719 61.28125 67.175781 61.675781 67.015625 C 62.070312 66.851562 62.480469 66.746094 62.90625 66.6875 C 63.335938 66.632812 63.769531 66.628906 64.21875 66.679688 C 64.664062 66.734375 65.109375 66.835938 65.558594 66.996094 C 66.003906 67.152344 66.445312 67.359375 66.875 67.617188 C 67.308594 67.871094 67.722656 68.175781 68.121094 68.519531 C 68.523438 68.867188 68.898438 69.253906 69.25 69.675781 C 69.597656 70.097656 69.921875 70.550781 70.210938 71.035156 C 70.5 71.519531 70.753906 72.023438 70.972656 72.546875 Z M 70.972656 72.546875 " fill-opacity="1" fill-rule="nonzero"/><path fill="#371a45" d="M 66.410156 83.453125 C 66.257812 83.453125 66.105469 83.449219 65.953125 83.433594 C 63.839844 83.265625 61.746094 81.9375 60.207031 79.792969 C 57.457031 75.960938 57.363281 70.699219 59.992188 68.0625 C 61.078125 66.972656 62.472656 66.460938 64.027344 66.585938 C 66.140625 66.757812 68.234375 68.085938 69.773438 70.230469 C 72.523438 74.0625 72.617188 79.320312 69.988281 81.960938 C 69.011719 82.941406 67.78125 83.453125 66.410156 83.453125 Z M 63.570312 66.722656 C 62.238281 66.722656 61.046875 67.21875 60.09375 68.167969 C 57.515625 70.757812 57.617188 75.929688 60.324219 79.707031 C 61.835938 81.816406 63.890625 83.121094 65.957031 83.285156 C 67.46875 83.40625 68.824219 82.914062 69.878906 81.855469 C 72.457031 79.269531 72.355469 74.097656 69.648438 70.324219 C 68.136719 68.214844 66.082031 66.910156 64.015625 66.742188 C 63.867188 66.726562 63.71875 66.722656 63.570312 66.722656 Z M 63.570312 66.722656 " fill-opacity="1" fill-rule="nonzero"/><path fill="#371a45" d="M 71.929688 76.675781 C 71.832031 75.039062 71.285156 73.425781 70.433594 72.015625 C 70.339844 75.765625 67.683594 78.109375 64.242188 77.335938 C 62.019531 76.835938 59.976562 75.148438 58.664062 72.960938 C 58.65625 73.199219 58.664062 73.445312 58.675781 73.691406 C 58.921875 77.855469 62.089844 81.902344 65.75 82.722656 C 69.410156 83.550781 72.175781 80.839844 71.929688 76.675781 Z M 71.929688 76.675781 " fill-opacity="0.35" fill-rule="nonzero"/><path fill="#371a45" d="M 66.566406 84.105469 C 63.296875 84.105469 59.808594 80.972656 58.382812 76.511719 C 57.421875 73.511719 57.566406 70.4375 58.761719 68.28125 C 59.519531 66.914062 60.644531 66.011719 62.011719 65.660156 C 65.589844 64.75 69.800781 68.089844 71.40625 73.109375 C 72.367188 76.109375 72.222656 79.183594 71.027344 81.339844 C 70.269531 82.707031 69.148438 83.609375 67.777344 83.957031 C 67.378906 84.054688 66.976562 84.105469 66.566406 84.105469 Z M 59.746094 76.074219 C 61.121094 80.382812 64.566406 83.292969 67.414062 82.566406 C 68.386719 82.320312 69.195312 81.65625 69.761719 80.640625 C 70.769531 78.820312 70.875 76.167969 70.03125 73.539062 C 68.652344 69.230469 65.207031 66.316406 62.359375 67.042969 C 61.386719 67.289062 60.578125 67.953125 60.015625 68.96875 C 59.003906 70.789062 58.90625 73.445312 59.746094 76.074219 Z M 59.746094 76.074219 " fill-opacity="1" fill-rule="nonzero"/><path fill="#ffffff" d="M 83.316406 44.789062 C 83.316406 44.789062 96.597656 40.722656 106.554688 45.476562 C 106.5625 45.480469 106.574219 45.484375 106.585938 45.488281 C 108.679688 46.492188 110.464844 48.042969 111.761719 49.960938 C 113.480469 52.496094 114.289062 54.496094 114.9375 56.285156 C 116.898438 61.722656 116.792969 64.636719 116.792969 64.636719 C 118.863281 60.652344 119.4375 56.761719 117.847656 52.214844 C 117.691406 51.769531 117.511719 51.3125 117.3125 50.847656 C 117.269531 50.742188 117.21875 50.636719 117.171875 50.53125 C 117.171875 50.53125 117.171875 50.527344 117.164062 50.527344 C 116.699219 49.621094 116.035156 48.449219 115.179688 47.191406 C 112.597656 43.398438 108.253906 38.796875 102.082031 38.148438 C 90.542969 36.945312 82.660156 44.378906 83.316406 44.789062 Z M 83.316406 44.789062 " fill-opacity="0.7" fill-rule="nonzero"/><g mask="url(#d9f9c41cab)"><g transform="matrix(1, 0, 0, 1, 73, 56)"><g clip-path="url(#ae2438222a)"><g clip-path="url(#3918167185)"><path fill="#ffffff" d="M 9.507812 5.3125 C 9.535156 5.621094 9.535156 5.933594 9.507812 6.242188 C 9.480469 6.550781 9.429688 6.851562 9.347656 7.148438 C 9.269531 7.445312 9.167969 7.726562 9.042969 7.996094 C 8.914062 8.269531 8.765625 8.519531 8.59375 8.757812 C 8.425781 8.992188 8.234375 9.207031 8.027344 9.394531 C 7.820312 9.585938 7.597656 9.753906 7.359375 9.890625 C 7.125 10.03125 6.875 10.144531 6.621094 10.226562 C 6.363281 10.308594 6.101562 10.359375 5.832031 10.382812 C 5.566406 10.40625 5.296875 10.394531 5.03125 10.359375 C 4.761719 10.320312 4.5 10.25 4.242188 10.152344 C 3.988281 10.054688 3.738281 9.929688 3.503906 9.773438 C 3.265625 9.621094 3.042969 9.441406 2.835938 9.238281 C 2.628906 9.03125 2.441406 8.808594 2.269531 8.5625 C 2.101562 8.316406 1.953125 8.054688 1.824219 7.777344 C 1.699219 7.496094 1.597656 7.207031 1.519531 6.90625 C 1.441406 6.609375 1.390625 6.300781 1.363281 5.992188 C 1.335938 5.679688 1.335938 5.371094 1.363281 5.0625 C 1.390625 4.753906 1.441406 4.449219 1.519531 4.15625 C 1.597656 3.859375 1.703125 3.578125 1.828125 3.304688 C 1.957031 3.035156 2.105469 2.78125 2.273438 2.546875 C 2.445312 2.3125 2.636719 2.097656 2.84375 1.90625 C 3.050781 1.714844 3.273438 1.550781 3.511719 1.410156 C 3.746094 1.273438 3.992188 1.160156 4.25 1.078125 C 4.507812 0.996094 4.769531 0.945312 5.039062 0.921875 C 5.304688 0.898438 5.574219 0.90625 5.839844 0.945312 C 6.105469 0.984375 6.371094 1.054688 6.625 1.152344 C 6.882812 1.25 7.128906 1.375 7.367188 1.53125 C 7.605469 1.683594 7.828125 1.863281 8.035156 2.066406 C 8.242188 2.269531 8.429688 2.496094 8.601562 2.742188 C 8.769531 2.988281 8.917969 3.25 9.046875 3.527344 C 9.171875 3.804688 9.273438 4.09375 9.351562 4.394531 C 9.429688 4.695312 9.480469 5 9.507812 5.3125 Z M 9.507812 5.3125 " fill-opacity="1" fill-rule="nonzero"/></g></g></g></g><g mask="url(#7f0e240165)"><g transform="matrix(1, 0, 0, 1, 77, 68)"><g clip-path="url(#56975e356c)"><g clip-path="url(#1c16574b25)"><path fill="#ffffff" d="M 2.15625 0.289062 C 2.378906 0.289062 2.59375 0.339844 2.800781 0.441406 C 3.007812 0.539062 3.191406 0.679688 3.347656 0.867188 C 3.507812 1.050781 3.628906 1.261719 3.714844 1.503906 C 3.800781 1.742188 3.839844 1.992188 3.839844 2.253906 C 3.839844 2.515625 3.796875 2.765625 3.710938 3.003906 C 3.625 3.246094 3.503906 3.457031 3.347656 3.640625 C 3.1875 3.824219 3.003906 3.964844 2.796875 4.066406 C 2.589844 4.164062 2.375 4.214844 2.152344 4.214844 C 1.929688 4.214844 1.714844 4.164062 1.507812 4.0625 C 1.300781 3.964844 1.117188 3.820312 0.960938 3.636719 C 0.800781 3.453125 0.679688 3.242188 0.59375 3 C 0.511719 2.761719 0.46875 2.511719 0.46875 2.25 C 0.46875 1.988281 0.511719 1.738281 0.597656 1.5 C 0.683594 1.257812 0.804688 1.046875 0.964844 0.863281 C 1.121094 0.679688 1.304688 0.539062 1.511719 0.4375 C 1.71875 0.339844 1.933594 0.289062 2.15625 0.289062 Z M 2.15625 0.289062 " fill-opacity="1" fill-rule="nonzero"/></g></g></g></g><path fill="#ffffff" d="M 104 105.039062 C 103.757812 106.292969 103.601562 107.875 103.601562 107.875 C 103.601562 107.875 101 107.632812 100.789062 107.59375 C 100.101562 107.464844 99.824219 105.894531 100.167969 104.09375 C 100.515625 102.292969 101.355469 100.9375 102.039062 101.066406 C 102.542969 101.160156 104.636719 101.335938 104.636719 101.335938 C 104.636719 101.335938 104.089844 104.554688 104 105.039062 Z M 104 105.039062 " fill-opacity="1" fill-rule="nonzero"/><path fill="#ffffff" d="M 104.707031 101.339844 C 104.925781 101.382812 105.121094 101.507812 105.289062 101.710938 C 105.460938 101.914062 105.59375 102.183594 105.691406 102.519531 C 105.785156 102.855469 105.839844 103.230469 105.847656 103.644531 C 105.851562 104.0625 105.816406 104.484375 105.730469 104.917969 C 105.648438 105.351562 105.527344 105.757812 105.367188 106.144531 C 105.207031 106.527344 105.019531 106.855469 104.804688 107.132812 C 104.59375 107.410156 104.367188 107.609375 104.132812 107.738281 C 103.898438 107.863281 103.671875 107.90625 103.453125 107.867188 C 103.234375 107.824219 103.039062 107.699219 102.871094 107.496094 C 102.699219 107.292969 102.566406 107.023438 102.46875 106.6875 C 102.371094 106.351562 102.320312 105.976562 102.3125 105.5625 C 102.308594 105.144531 102.34375 104.722656 102.429688 104.289062 C 102.511719 103.855469 102.632812 103.449219 102.792969 103.0625 C 102.953125 102.679688 103.140625 102.351562 103.355469 102.074219 C 103.566406 101.796875 103.792969 101.597656 104.027344 101.46875 C 104.261719 101.34375 104.488281 101.300781 104.707031 101.339844 Z M 104.707031 101.339844 " fill-opacity="1" fill-rule="nonzero"/><path fill="#371a45" d="M 77.351562 104.914062 C 76.394531 106.226562 66.910156 113.53125 59.234375 113.992188 C 56.433594 112.121094 55.550781 110.800781 55.636719 108.429688 C 60.199219 109.847656 65.894531 104.46875 65.894531 104.46875 C 70.011719 108.769531 77.625 104.53125 77.351562 104.914062 Z M 77.351562 104.914062 " fill-opacity="0.3" fill-rule="nonzero"/><path fill="#ffffff" d="M 108.511719 96.6875 C 108.039062 98.011719 107.289062 100.117188 106.4375 102.292969 C 105.214844 105.414062 103.785156 108.679688 102.644531 110.011719 C 100.664062 112.328125 92.332031 113.597656 86.917969 113.777344 C 85.496094 113.820312 84.457031 112.503906 85.039062 111.210938 C 85.996094 109.097656 86.773438 107.023438 87.390625 105.21875 C 87.96875 103.511719 88.398438 102.046875 88.683594 101.011719 C 88.941406 100.058594 89.804688 99.394531 90.789062 99.382812 C 99.382812 99.25 105.171875 97.070312 107.65625 95.914062 C 108.164062 95.671875 108.703125 96.164062 108.511719 96.6875 Z M 108.511719 96.6875 " fill-opacity="1" fill-rule="nonzero"/><path fill="#371a45" d="M 104.832031 106.132812 C 104.214844 107.488281 103.601562 108.679688 103.035156 109.5 C 102.902344 109.695312 102.769531 109.863281 102.644531 110.015625 C 100.664062 112.332031 92.332031 113.601562 86.917969 113.78125 C 85.496094 113.824219 84.457031 112.507812 85.039062 111.214844 C 85.996094 109.101562 86.773438 107.027344 87.390625 105.226562 C 87.910156 106.679688 89.652344 109.703125 95.15625 109.945312 C 96.582031 110.007812 97.988281 109.585938 99.332031 108.878906 C 99.015625 108.269531 98.945312 107.097656 99.195312 105.804688 C 99.542969 104.003906 100.378906 102.652344 101.0625 102.78125 C 101.484375 102.859375 103.007812 102.996094 103.503906 103.035156 C 103.578125 103.03125 103.65625 103.035156 103.726562 103.046875 C 104.210938 103.136719 104.570312 103.636719 104.746094 104.347656 C 104.875 104.855469 104.90625 105.472656 104.832031 106.132812 Z M 104.832031 106.132812 " fill-opacity="0.3" fill-rule="nonzero"/><path fill="#371a45" d="M 104.832031 106.132812 C 104.90625 105.472656 104.875 104.855469 104.75 104.34375 C 105.359375 103.65625 105.929688 102.957031 106.4375 102.296875 C 105.925781 103.597656 105.378906 104.929688 104.832031 106.132812 Z M 104.832031 106.132812 " fill-opacity="0.3" fill-rule="nonzero"/><path fill="#371a45" d="M 86.847656 114.496094 C 85.917969 114.496094 85.074219 114.058594 84.578125 113.316406 C 84.09375 112.597656 84.027344 111.71875 84.390625 110.914062 C 86.25 106.796875 87.445312 102.824219 87.992188 100.824219 C 88.332031 99.570312 89.476562 98.6875 90.78125 98.664062 C 99.128906 98.535156 104.75 96.476562 107.355469 95.261719 C 107.847656 95.035156 108.429688 95.117188 108.832031 95.484375 C 109.234375 95.851562 109.375 96.417969 109.195312 96.929688 L 109.078125 97.25 C 107.804688 100.800781 105.15625 108.1875 103.199219 110.476562 C 100.949219 113.105469 92.246094 114.316406 86.949219 114.492188 C 86.910156 114.496094 86.878906 114.496094 86.847656 114.496094 Z M 107.765625 96.648438 C 104.972656 97.921875 99.214844 99.964844 90.800781 100.09375 C 90.128906 100.101562 89.546875 100.558594 89.371094 101.191406 C 88.816406 103.242188 87.597656 107.300781 85.695312 111.5 C 85.480469 111.96875 85.648438 112.339844 85.765625 112.515625 C 86.003906 112.867188 86.429688 113.078125 86.890625 113.054688 C 92.925781 112.859375 100.457031 111.460938 102.09375 109.542969 C 103.882812 107.453125 106.570312 99.960938 107.714844 96.761719 Z M 88.683594 101.011719 Z M 88.683594 101.011719 " fill-opacity="1" fill-rule="nonzero"/><path fill="#22a7f0" d="M 104 105.039062 C 103.757812 106.292969 103.601562 107.875 103.601562 107.875 C 103.601562 107.875 101 107.632812 100.789062 107.59375 C 100.101562 107.464844 99.824219 105.894531 100.167969 104.09375 C 100.515625 102.292969 101.355469 100.9375 102.039062 101.066406 C 102.542969 101.160156 104.636719 101.335938 104.636719 101.335938 C 104.636719 101.335938 104.089844 104.554688 104 105.039062 Z M 104 105.039062 " fill-opacity="1" fill-rule="nonzero"/><path fill="#ffffff" d="M 104.632812 101.332031 C 104.632812 101.332031 104.089844 104.550781 103.996094 105.03125 C 103.753906 106.289062 103.597656 107.871094 103.597656 107.871094 C 103.597656 107.871094 103.542969 107.867188 103.457031 107.859375 C 103.53125 107.339844 103.617188 106.714844 103.726562 106.160156 C 103.820312 105.675781 104.363281 102.453125 104.363281 102.453125 C 104.363281 102.453125 102.269531 102.285156 101.765625 102.1875 C 101.210938 102.078125 100.550781 102.953125 100.136719 104.25 C 100.148438 104.195312 100.15625 104.144531 100.167969 104.085938 C 100.515625 102.285156 101.355469 100.929688 102.039062 101.058594 C 102.542969 101.160156 104.632812 101.332031 104.632812 101.332031 Z M 104.632812 101.332031 " fill-opacity="0.8" fill-rule="nonzero"/><path fill="#371a45" d="M 103.898438 105.636719 C 103.714844 106.746094 103.601562 107.871094 103.601562 107.871094 C 103.601562 107.871094 101 107.628906 100.789062 107.589844 C 100.101562 107.460938 99.828125 105.890625 100.167969 104.089844 C 100.285156 103.480469 100.457031 102.921875 100.664062 102.457031 C 100.476562 104.003906 100.761719 105.265625 101.371094 105.382812 C 101.535156 105.414062 103.210938 105.574219 103.898438 105.636719 Z M 103.898438 105.636719 " fill-opacity="0.3" fill-rule="nonzero"/><path fill="#371a45" d="M 103.597656 108.433594 C 103.578125 108.433594 103.5625 108.433594 103.542969 108.429688 C 102.921875 108.371094 100.894531 108.183594 100.675781 108.140625 C 100.34375 108.078125 99.746094 107.785156 99.53125 106.566406 C 99.402344 105.84375 99.433594 104.925781 99.613281 103.988281 C 99.96875 102.148438 100.90625 100.28125 102.140625 100.519531 C 102.523438 100.589844 104.097656 100.734375 104.671875 100.777344 C 104.832031 100.789062 104.972656 100.867188 105.066406 100.992188 C 105.164062 101.117188 105.203125 101.273438 105.179688 101.429688 C 105.15625 101.558594 104.632812 104.660156 104.542969 105.144531 C 104.308594 106.359375 104.152344 107.917969 104.148438 107.933594 C 104.125 108.214844 103.882812 108.433594 103.597656 108.433594 Z M 101.933594 101.613281 C 101.734375 101.648438 101.054688 102.46875 100.722656 104.195312 C 100.390625 105.925781 100.722656 106.9375 100.910156 107.050781 C 101.027344 107.066406 102.050781 107.164062 103.101562 107.269531 C 103.171875 106.6875 103.292969 105.753906 103.449219 104.933594 C 103.515625 104.589844 103.820312 102.792969 103.984375 101.839844 C 103.308594 101.777344 102.292969 101.679688 101.933594 101.613281 Z M 101.933594 101.613281 " fill-opacity="1" fill-rule="nonzero"/><path fill="#22a7f0" d="M 104.707031 101.339844 C 104.925781 101.382812 105.121094 101.507812 105.289062 101.710938 C 105.460938 101.914062 105.59375 102.183594 105.691406 102.519531 C 105.785156 102.855469 105.839844 103.230469 105.847656 103.644531 C 105.851562 104.0625 105.816406 104.484375 105.730469 104.917969 C 105.648438 105.351562 105.527344 105.757812 105.367188 106.144531 C 105.207031 106.527344 105.019531 106.855469 104.804688 107.132812 C 104.59375 107.410156 104.367188 107.609375 104.132812 107.738281 C 103.898438 107.863281 103.671875 107.90625 103.453125 107.867188 C 103.234375 107.824219 103.039062 107.699219 102.871094 107.496094 C 102.699219 107.292969 102.566406 107.023438 102.46875 106.6875 C 102.371094 106.351562 102.320312 105.976562 102.3125 105.5625 C 102.308594 105.144531 102.34375 104.722656 102.429688 104.289062 C 102.511719 103.855469 102.632812 103.449219 102.792969 103.0625 C 102.953125 102.679688 103.140625 102.351562 103.355469 102.074219 C 103.566406 101.796875 103.792969 101.597656 104.027344 101.46875 C 104.261719 101.34375 104.488281 101.300781 104.707031 101.339844 Z M 104.707031 101.339844 " fill-opacity="1" fill-rule="nonzero"/><path fill="#ffffff" d="M 105.738281 104.914062 C 105.714844 105.027344 105.6875 105.144531 105.660156 105.257812 C 105.722656 103.855469 105.277344 102.734375 104.523438 102.59375 C 103.671875 102.429688 102.722656 103.574219 102.316406 105.199219 C 102.332031 104.902344 102.367188 104.59375 102.425781 104.28125 C 102.769531 102.480469 103.792969 101.15625 104.703125 101.332031 C 105.621094 101.507812 106.082031 103.109375 105.738281 104.914062 Z M 105.738281 104.914062 " fill-opacity="0.8" fill-rule="nonzero"/><path fill="#371a45" d="M 105.699219 105.0625 C 105.328125 106.789062 104.339844 108.027344 103.453125 107.859375 C 102.539062 107.683594 102.082031 106.082031 102.425781 104.28125 C 102.605469 103.339844 102.972656 102.53125 103.410156 101.992188 C 103.398438 102.042969 103.386719 102.089844 103.375 102.144531 C 103.03125 103.945312 103.492188 105.550781 104.410156 105.722656 C 104.84375 105.804688 105.300781 105.550781 105.699219 105.0625 Z M 105.699219 105.0625 " fill-opacity="0.3" fill-rule="nonzero"/><path fill="#371a45" d="M 103.617188 108.433594 C 103.53125 108.433594 103.441406 108.425781 103.351562 108.40625 C 102.691406 108.28125 102.183594 107.722656 101.929688 106.835938 C 101.707031 106.074219 101.691406 105.132812 101.875 104.175781 C 102.292969 102.003906 103.546875 100.546875 104.8125 100.78125 C 105.472656 100.90625 105.980469 101.464844 106.234375 102.355469 C 106.453125 103.117188 106.472656 104.058594 106.289062 105.015625 C 105.898438 107.035156 104.785156 108.433594 103.617188 108.433594 Z M 104.542969 101.878906 C 104.082031 101.878906 103.28125 102.796875 102.976562 104.386719 C 102.828125 105.164062 102.839844 105.941406 103.007812 106.527344 C 103.132812 106.96875 103.351562 107.269531 103.5625 107.308594 C 104.007812 107.398438 104.867188 106.457031 105.183594 104.804688 C 105.332031 104.027344 105.324219 103.25 105.152344 102.664062 C 105.027344 102.222656 104.8125 101.921875 104.601562 101.882812 C 104.582031 101.878906 104.5625 101.878906 104.542969 101.878906 Z M 104.542969 101.878906 " fill-opacity="1" fill-rule="nonzero"/><path fill="#371a45" d="M 93.167969 113.878906 C 93.089844 113.878906 93.011719 113.867188 92.933594 113.839844 C 92.585938 113.710938 92.410156 113.324219 92.539062 112.976562 L 94.648438 107.320312 L 93.027344 106.296875 C 92.785156 106.144531 92.664062 105.851562 92.738281 105.570312 L 94.375 98.976562 C 94.464844 98.617188 94.828125 98.398438 95.191406 98.484375 C 95.550781 98.574219 95.769531 98.9375 95.683594 99.296875 L 94.164062 105.421875 L 95.832031 106.476562 C 96.101562 106.648438 96.214844 106.980469 96.101562 107.277344 L 93.804688 113.441406 C 93.695312 113.714844 93.441406 113.878906 93.167969 113.878906 Z M 93.167969 113.878906 " fill-opacity="1" fill-rule="nonzero"/><g fill="#ffffff" fill-opacity="1"><g transform="translate(81.406443, 101.089761)"><g><path d="M 0.390625 -0.265625 C 0.390625 -0.378906 0.414062 -0.460938 0.46875 -0.515625 C 0.519531 -0.578125 0.59375 -0.609375 0.6875 -0.609375 C 0.78125 -0.609375 0.851562 -0.578125 0.90625 -0.515625 C 0.96875 -0.460938 1 -0.378906 1 -0.265625 C 1 -0.160156 0.96875 -0.078125 0.90625 -0.015625 C 0.851562 0.046875 0.78125 0.078125 0.6875 0.078125 C 0.601562 0.078125 0.53125 0.0507812 0.46875 0 C 0.414062 -0.0625 0.390625 -0.148438 0.390625 -0.265625 Z M 0.390625 -0.265625 "/></g></g></g></svg>